<?xml version="1.0" encoding="utf-8"?>
<!-- Generator: Adobe Illustrator 21.0.2, SVG Export Plug-In . SVG Version: 6.00 Build 0)  -->
<svg version="1.1" id="Ebene_1" xmlns="http://www.w3.org/2000/svg" xmlns:xlink="http://www.w3.org/1999/xlink" x="0px" y="0px"
	 width="206px" height="166.3px" viewBox="0 0 206 166.3" style="enable-background:new 0 0 206 166.3;" xml:space="preserve">
<g>
	<path style="fill:#0C7284;" d="M-523,136.3h2.3v10.1h-2.9c-1-4.4-3.5-7.5-8.2-7.5c-3.7,0-5.2,1-5.2,3.6c0,6,17.8,1.5,17.8,12.7
		c0,6.4-5,8.4-10.6,8.4c-3,0-6-1.3-8.3-3.2l-0.9,2.4h-2.7V152h3c0.6,5.4,3.8,8.2,9.5,8.2c3.5,0,5.2-1.6,5.2-3.6
		c0-6.8-17.8-1.7-17.8-13.1c0-5.6,5.1-8,9.9-8c3,0,5.6,1.4,7.6,2.8L-523,136.3z"/>
	<path style="fill:#0C7284;" d="M-499.7,155.2c-0.4,5.4-3.2,8.3-8.6,8.3c-6.2,0-9.4-3.6-9.4-10c0-5.9,4.7-9.9,9.9-9.9
		c4.6,0,8.2,2.5,8.2,5.9c0,1.8-1.2,3.3-2.9,3.3c-1.4,0-3.1-0.7-3.1-2.4c0-1.6,0.8-2.5,2.4-2.6c-0.9-1.2-2.2-1.6-3.8-1.6
		c-4.2,0-5.3,3.9-5.3,7c0,3,1,7,5.2,7c2.4,0,4.1-2,4.4-4.9H-499.7z"/>
	<path style="fill:#0C7284;" d="M-489.2,147.3L-489.2,147.3c1.7-2.2,3.9-3.8,7-3.8c3.5,0,5.7,2.2,5.7,5.6v9.5c0,1.2,0.5,1.6,1.6,1.6
		h2.2v2.6h-11.7v-2.6h1.5c1.1,0,1.6-0.4,1.6-1.6v-9.2c0-2-1.4-2.8-3.5-2.8c-2.1,0-4.5,2.2-4.5,5.7v6.2c0,1.2,0.5,1.6,1.6,1.6h1.6
		v2.6h-11.8v-2.6h2.3c1.1,0,1.6-0.4,1.6-1.6v-18c0-1.2-0.5-1.6-1.6-1.6h-2.3v-2.6h8.6V147.3z"/>
	<path style="fill:#0C7284;" d="M-448.8,155.9v1.2c0,4.5-1.8,6.4-5.2,6.4c-2,0-3.7-0.8-4-3c-1.5,2.2-4,3-6.6,3
		c-3.1,0-5.6-1.5-5.6-5.1c0-7.8,12-4,12-9.6c0-2.6-2.2-3-4.3-3c-1.1,0-3,0.4-3.7,1.3c1.5-0.2,2.6,0.4,2.6,2.1c0,1.8-1.2,2.4-2.8,2.4
		c-1.7,0-2.9-1.3-2.9-3c0-4.1,4.9-5,8-5c5.4,0,7.7,2.4,7.7,5.8v9.8c0,0.9,0.4,1.3,1,1.3c0.6,0,1.1-0.6,1.1-3v-1.5H-448.8z
		 M-465,135.8c1.5,0,2.6,1.2,2.6,2.6c0,1.4-1.1,2.6-2.6,2.6c-1.5,0-2.6-1.2-2.6-2.6C-467.6,137-466.5,135.8-465,135.8z M-458.1,153
		l-4.2,1.9c-1.2,0.5-2.4,1.2-2.4,3c0,1.7,0.8,2.5,2.4,2.5c2.7,0,4.2-2.3,4.2-4.9V153z M-456.6,135.8c1.5,0,2.6,1.2,2.6,2.6
		c0,1.4-1.1,2.6-2.6,2.6c-1.5,0-2.6-1.2-2.6-2.6C-459.2,137-458.1,135.8-456.6,135.8z"/>
	<path style="fill:#0C7284;" d="M-447.3,144.1h3.8v-1c0-5.1,2.7-7.6,6.9-7.6c2.6,0,5.6,1.5,5.6,4.4c0,1.6-0.9,2.8-2.6,2.8
		c-1.5,0-2.6-1-2.6-2.3c0-1.2,0.9-2,2-2.2c0,0-0.1-0.1-0.1-0.1c-0.6-0.4-1.3-0.6-2-0.6c-2.1,0-2.6,1.4-2.6,3.2v3.4h4.1v2.6h-4.1
		v11.8c0,1.2,0.5,1.6,1.6,1.6h2.4v2.6h-12.5v-2.6h2.2c1.1,0,1.6-0.4,1.6-1.6v-11.8h-3.8V144.1z"/>
	<path style="fill:#0C7284;" d="M-426.1,154c-0.1,3.1,0.8,6.5,4.6,6.5c2.9,0,4.3-1.5,4.8-4.2h3.3c-0.5,4.6-3.3,7.2-8.6,7.2
		c-6.2,0-9.5-3.5-9.5-10c0-5.8,3.8-10,9.3-10c6.6,0,9.3,5.9,8.9,10.4H-426.1z M-418.6,151.3c0-2.5-0.8-5-3.6-5c-2.7,0-3.7,2.5-3.8,5
		H-418.6z"/>
	<path style="fill:#0C7284;" d="M-403,147.2L-403,147.2c1.7-2.4,2.9-3.6,5.1-3.6c2.6,0,4.8,1.5,4.8,4.4c0,1.8-1.1,3.4-3,3.4
		c-1.6,0-2.8-0.9-2.8-2.6c0-1.5,1.2-2.4,2.6-2.4c-0.4-0.5-1.1-0.6-1.7-0.6c-3.3,0-5,3.3-5,6.2v6.7c0,1.2,0.5,1.6,1.6,1.6h2.5v2.6
		h-12.6v-2.6h2.2c1.1,0,1.6-0.4,1.6-1.6v-10.2c0-1.2-0.5-1.6-1.6-1.6h-2.2v-2.6h8.5V147.2z"/>
	<path style="opacity:0.75;fill:#0C7284;" d="M-542.7,180h1.1c0.5,0,0.8-0.3,0.8-0.8v-7.3c0-0.5-0.2-0.8-0.7-0.8h-1.2v-0.8h6.4
		c2,0,3.6,0.8,3.6,2.6c0,1.6-1.2,2.2-2.6,2.4v0c1.6,0.2,3,0.9,3,2.7c0,1.8-1.4,2.8-4.9,2.8h-5.5V180z M-539.2,174.9h2.1
		c1.8,0,2.9-0.7,2.9-1.9c0-1.2-0.7-1.9-2.9-1.9h-2.1V174.9z M-539.2,180h2.3c1.6,0,2.9-0.4,2.9-2.1s-1.3-2.1-2.9-2.1h-2.3V180z"/>
	<path style="opacity:0.75;fill:#0C7284;" d="M-524.1,179.5L-524.1,179.5c-0.7,1-1.6,1.6-2.9,1.6c-1.7,0-2.6-0.8-2.6-2.5v-3.7
		c0-0.5-0.1-0.7-0.6-0.7h-1v-0.8h3v5.1c0,1.1,0.4,1.8,1.6,1.8c1.5,0,2.4-1.2,2.4-2.5v-2.8c0-0.5-0.1-0.7-0.6-0.7h-1v-0.8h3v6
		c0,0.5,0.1,0.7,0.6,0.7h1v0.8h-3V179.5z M-526.9,171.2c0,0.5-0.4,0.8-0.9,0.8c-0.5,0-0.9-0.4-0.9-0.8s0.4-0.8,0.9-0.8
		C-527.3,170.4-526.9,170.7-526.9,171.2z M-523.7,171.2c0,0.5-0.4,0.8-0.9,0.8c-0.5,0-0.9-0.4-0.9-0.8s0.4-0.8,0.9-0.8
		C-524.1,170.4-523.7,170.7-523.7,171.2z"/>
	<path style="opacity:0.75;fill:#0C7284;" d="M-517.3,175L-517.3,175c0.4-1.1,1.4-1.9,2.3-1.9c1.1,0,1.8,0.6,1.8,1.7
		c0,0.6-0.3,1.1-0.9,1.1c-0.4,0-0.9-0.3-0.9-0.7c0-0.6,0.4-0.8,1-0.8c-0.1-0.4-0.6-0.4-0.9-0.4c-1.5,0-2.3,1.7-2.3,3.3v2.2
		c0,0.5,0.3,0.7,0.8,0.7h0.9v0.8h-4.7v-0.8h1c0.5,0,0.6-0.2,0.6-0.7v-4.5c0-0.5-0.1-0.7-0.6-0.7h-1.1v-0.8h3V175z"/>
	<path style="opacity:0.75;fill:#0C7284;" d="M-504.2,177.1c0,2.3-1.6,4-4.1,4s-4.1-1.7-4.1-4s1.6-4,4.1-4S-504.2,174.8-504.2,177.1
		z M-510.9,177.1c0,1.7,0.6,3.2,2.6,3.2s2.6-1.5,2.6-3.2s-0.6-3.2-2.6-3.2S-510.9,175.4-510.9,177.1z"/>
	<path style="opacity:0.75;fill:#0C7284;" d="M-495.6,174.1v5.2c0,0.5,0.4,0.7,0.9,0.7h0.8v0.8h-4.8v-0.8h1.1c0.5,0,0.6-0.2,0.6-0.7
		v-5.2h-1.7v-0.8h1.7v-1.1c0-1.7,1.3-2.4,2.5-2.4c0.9,0,2.4,0.3,2.4,1.7c0,0.6-0.4,0.9-1,0.9c-0.7,0-0.8-0.4-0.8-0.8
		c0-0.4,0.3-0.6,0.6-0.6c-0.2-0.3-0.8-0.4-1.2-0.4c-0.6,0-1.2,0.6-1.2,1.4v1.3h1.8v0.8H-495.6z"/>
	<path style="opacity:0.75;fill:#0C7284;" d="M-485.4,179.5L-485.4,179.5c-0.7,1-1.6,1.6-2.9,1.6c-1.7,0-2.6-0.8-2.6-2.5v-3.7
		c0-0.5-0.1-0.7-0.6-0.7h-1v-0.8h3v5.1c0,1.1,0.4,1.8,1.6,1.8c1.5,0,2.4-1.2,2.4-2.5v-2.8c0-0.5-0.1-0.7-0.6-0.7h-1v-0.8h3v6
		c0,0.5,0.1,0.7,0.6,0.7h1v0.8h-3V179.5z M-488.3,171.2c0,0.5-0.4,0.8-0.9,0.8c-0.5,0-0.9-0.4-0.9-0.8s0.4-0.8,0.9-0.8
		C-488.7,170.4-488.3,170.7-488.3,171.2z M-485,171.2c0,0.5-0.4,0.8-0.9,0.8c-0.5,0-0.9-0.4-0.9-0.8s0.4-0.8,0.9-0.8
		C-485.4,170.4-485,170.7-485,171.2z"/>
	<path style="opacity:0.75;fill:#0C7284;" d="M-478.6,175L-478.6,175c0.4-1.1,1.4-1.9,2.3-1.9c1.1,0,1.8,0.6,1.8,1.7
		c0,0.6-0.3,1.1-0.9,1.1c-0.4,0-0.9-0.3-0.9-0.7c0-0.6,0.4-0.8,1-0.8c-0.1-0.4-0.6-0.4-0.9-0.4c-1.5,0-2.3,1.7-2.3,3.3v2.2
		c0,0.5,0.3,0.7,0.8,0.7h0.9v0.8h-4.7v-0.8h1c0.5,0,0.6-0.2,0.6-0.7v-4.5c0-0.5-0.1-0.7-0.6-0.7h-1.1v-0.8h3V175z"/>
	<path style="opacity:0.75;fill:#0C7284;" d="M-464.8,180.9l-2.6-8.9c-0.2-0.7-0.4-0.9-1.2-0.9h-0.4v-0.8h4.5v0.8h-0.8
		c-0.4,0-0.6,0.1-0.6,0.4c0,0.2,0,0.4,0.1,0.7l1.9,6.8h0l2.2-6.7c0-0.2-0.4-1.2-1-1.2h-0.8v-0.8h4.6v0.8h-0.8c-0.3,0-0.7,0-0.7,0.5
		c0,0.3,0.2,0.8,0.3,1.1l1.8,6.3h0l1.9-6.4c0.1-0.3,0.2-0.7,0.2-1c0-0.5-0.3-0.5-0.7-0.5h-0.8v-0.8h4.1v0.8h-0.5
		c-0.6,0-0.9,0.4-1,0.7l-2.8,9.2h-1.3l-2.1-7.1h0l-2.3,7.1H-464.8z"/>
	<path style="opacity:0.75;fill:#0C7284;" d="M-452.2,177.2c0,1.6,0.4,3.1,2.2,3.1c1.3,0,2.1-0.7,2.4-1.9h0.9
		c-0.4,1.7-1.5,2.7-3.3,2.7c-2.4,0-3.7-1.4-3.7-4s1.4-4,3.7-4c2.6,0,3.4,1.8,3.6,4.1H-452.2z M-447.9,176.4c0-1.4-0.6-2.6-2.1-2.6
		c-1.5,0-2.2,1.2-2.2,2.6H-447.9z"/>
	<path style="opacity:0.75;fill:#0C7284;" d="M-445.1,171.7c0-0.5-0.2-0.7-0.7-0.7h-0.6v-0.8h2.7v4.4h0c0.5-0.9,1.3-1.5,2.4-1.5
		c2.2,0,3.4,1.8,3.4,4s-1.1,4-3.4,4c-1.2,0-2-0.5-2.6-1.5l-0.5,1.4h-0.7V171.7z M-441.6,180.2c1.7,0,2.1-1.7,2.1-3.1
		s-0.4-3.1-2.1-3.1c-1.7,0-2.1,1.7-2.1,3.1S-443.3,180.2-441.6,180.2z"/>
	<path style="opacity:0.75;fill:#0C7284;" d="M-435.3,177.2c0,1.6,0.4,3.1,2.2,3.1c1.3,0,2.1-0.7,2.4-1.9h0.9
		c-0.4,1.7-1.5,2.7-3.3,2.7c-2.4,0-3.7-1.4-3.7-4s1.4-4,3.7-4c2.6,0,3.4,1.8,3.6,4.1H-435.3z M-431,176.4c0-1.4-0.6-2.6-2.1-2.6
		c-1.5,0-2.2,1.2-2.2,2.6H-431z"/>
	<path style="opacity:0.75;fill:#0C7284;" d="M-425.8,174.7L-425.8,174.7c0.7-1,1.6-1.6,2.9-1.6c1.7,0,2.6,1.1,2.6,2.8v3.5
		c0,0.5,0.1,0.7,0.6,0.7h1v0.8h-4.5v-0.8h0.9c0.5,0,0.6-0.2,0.6-0.7v-3.6c0-1.1-0.4-1.8-1.6-1.8c-1.5,0-2.4,1.2-2.4,2.5v2.8
		c0,0.5,0.1,0.7,0.6,0.7h1v0.8h-4.7v-0.8h1c0.5,0,0.6-0.2,0.6-0.7v-4.5c0-0.5-0.1-0.7-0.6-0.7h-1v-0.8h3V174.7z"/>
	<path style="opacity:0.75;fill:#0C7284;" d="M-418.1,173.3c1.5-0.2,1.8-1.8,1.9-3.1h0.8v3.1h2.3v0.8h-2.3v5.3
		c0,0.7,0.3,0.9,0.8,0.9c0.7,0,1.1-0.6,1.1-1.6v-0.9h0.8v0.7c0,1.6-0.5,2.6-2.2,2.6c-1.4,0-1.9-0.9-1.9-1.8v-5.2h-1.4V173.3z"/>
	<path style="opacity:0.75;fill:#0C7284;" d="M-411.7,173.3h3.6v0.8h-0.6c-0.4,0-0.5,0.1-0.5,0.3c0,0.2,0.1,0.3,0.1,0.5l1.6,4.3h0
		l1.7-4.2c-0.2-0.5-0.5-0.9-1-0.9h-0.4v-0.8h3.8v0.8h-0.7c-0.4,0-0.6,0.1-0.6,0.3c0,0.2,0.1,0.3,0.2,0.6l1.6,4.3h0l1.6-4.4
		c0.1-0.2,0.1-0.3,0.1-0.5c0-0.2-0.4-0.3-0.9-0.3h-0.3v-0.8h3.3v0.8h-0.2c-0.5,0-0.8,0.3-1,0.8l-2.4,6.1h-0.9l-1.9-4.7l-1.8,4.7
		h-0.9l-2.5-6.3c-0.1-0.4-0.4-0.5-0.9-0.5h-0.2V173.3z"/>
	<path style="opacity:0.75;fill:#0C7284;" d="M-395,179.4c0,0.5,0.1,0.7,0.6,0.7h1v0.8h-4.7v-0.8h1c0.5,0,0.6-0.2,0.6-0.7v-4.5
		c0-0.5-0.1-0.7-0.6-0.7h-1v-0.8h3V179.4z M-395.9,171.8c-0.5,0-0.9-0.4-0.9-0.9c0-0.5,0.4-0.9,0.9-0.9c0.5,0,0.9,0.4,0.9,0.9
		C-395,171.4-395.4,171.8-395.9,171.8z"/>
	<path style="opacity:0.75;fill:#0C7284;" d="M-385.5,178.1c-0.2,2.2-1.6,3-3.6,3c-2,0-3.5-1.3-3.5-4c0-2.4,1.7-4,4-4
		c1.4,0,3.2,0.7,3.2,2.4c0,0.7-0.4,1.1-1,1.1c-0.4,0-0.8-0.3-0.8-0.8c0-0.5,0.3-0.8,0.8-0.9c-0.3-0.8-1.3-1.1-2-1.1
		c-2,0-2.7,1.8-2.7,3.2s0.7,3.2,2.4,3.2c1.3,0,2.1-0.9,2.3-2.2H-385.5z"/>
	<path style="opacity:0.75;fill:#0C7284;" d="M-381.7,170.2v7l2.9-2.3c0.2-0.2,0.3-0.3,0.3-0.5c0-0.2-0.2-0.3-0.6-0.3h-1v-0.8h4.9
		v0.8h-0.4c-0.5,0-1.1,0.2-1.5,0.5l-2.2,1.8l2.6,2.8c0.4,0.5,0.9,0.8,1.7,0.8h0.3v0.8h-4.7v-0.8h0.9c0.3,0,0.5-0.1,0.5-0.3
		c0-0.2-0.4-0.5-0.4-0.6l-1.8-2l-1.4,1.1v1.1c0,0.5,0.1,0.7,0.6,0.7h0.8v0.8h-4.5v-0.8h0.8c0.7,0,0.8-0.2,0.8-0.7v-7.6
		c0-0.5-0.3-0.7-0.9-0.7h-0.8v-0.8H-381.7z"/>
	<path style="opacity:0.75;fill:#0C7284;" d="M-371,179.4c0,0.5,0.1,0.7,0.6,0.7h1v0.8h-4.7v-0.8h1c0.5,0,0.6-0.2,0.6-0.7v-7.6
		c0-0.5-0.4-0.7-0.6-0.7h-1v-0.8h3V179.4z"/>
	<path style="opacity:0.75;fill:#0C7284;" d="M-361.6,179.5L-361.6,179.5c-0.7,1-1.6,1.6-2.9,1.6c-1.7,0-2.6-0.8-2.6-2.5v-3.7
		c0-0.5-0.1-0.7-0.6-0.7h-1v-0.8h3v5.1c0,1.1,0.4,1.8,1.6,1.8c1.5,0,2.4-1.2,2.4-2.5v-2.8c0-0.5-0.1-0.7-0.6-0.7h-1v-0.8h3v6
		c0,0.5,0.1,0.7,0.6,0.7h1v0.8h-3V179.5z"/>
	<path style="opacity:0.75;fill:#0C7284;" d="M-355,174.7L-355,174.7c0.7-1,1.6-1.6,2.9-1.6c1.7,0,2.6,1.1,2.6,2.8v3.5
		c0,0.5,0.1,0.7,0.6,0.7h1v0.8h-4.5v-0.8h0.9c0.5,0,0.6-0.2,0.6-0.7v-3.6c0-1.1-0.4-1.8-1.6-1.8c-1.5,0-2.4,1.2-2.4,2.5v2.8
		c0,0.5,0.1,0.7,0.6,0.7h1v0.8h-4.7v-0.8h1c0.5,0,0.6-0.2,0.6-0.7v-4.5c0-0.5-0.1-0.7-0.6-0.7h-1v-0.8h3V174.7z"/>
	<path style="opacity:0.75;fill:#0C7284;" d="M-341.9,179.9c2.4,0,3.3,0.7,3.3,2c0,1.5-1.5,2.3-4.3,2.3c-2.6,0-4-0.6-4-1.9
		c0-1,0.9-1.4,1.7-1.4v0c-0.7,0-1.4-0.5-1.4-1.3s0.7-1.4,1.4-1.6c-0.8-0.5-1.1-1.3-1.1-2.2c0-2,1.8-2.8,3.5-2.8
		c0.9,0,1.9,0.3,2.6,0.9c0.4-0.5,1-0.9,1.6-0.9c0.9,0,1.5,0.5,1.5,1.4c0,0.6-0.3,1-0.9,1c-0.5,0-0.7-0.3-0.7-0.8
		c0-0.5,0.3-0.7,0.8-0.7c-0.1-0.2-0.4-0.3-0.7-0.3c-0.4,0-0.9,0.3-1.2,0.6c0.3,0.5,0.4,1,0.4,1.7c0,1.3-1.3,2.6-3.4,2.6
		c-1.3,0-1.5-0.3-1.8-0.3c-0.4,0-0.8,0.4-0.8,0.8c0,0.5,0.4,0.7,0.9,0.7H-341.9z M-343.9,181.1c-0.9,0-1.9,0.4-1.9,1.1
		c0,1.1,1.4,1.2,3,1.2c1.6,0,2.9-0.4,2.9-1.2c0-0.8-0.6-1.2-1.6-1.2H-343.9z M-344.9,176c0,1.2,0.6,2.1,1.9,2.1
		c1.4,0,1.9-0.8,1.9-2.1s-0.6-2.1-1.9-2.1C-344.3,173.9-344.9,174.7-344.9,176z"/>
</g>
<g>
	<path style="fill:#474949;" d="M-523,356.3h2.3v10.1h-2.9c-1-4.4-3.5-7.5-8.2-7.5c-3.7,0-5.2,1-5.2,3.6c0,6,17.8,1.5,17.8,12.7
		c0,6.4-5,8.4-10.6,8.4c-3,0-6-1.3-8.3-3.2l-0.9,2.4h-2.7V372h3c0.6,5.4,3.8,8.2,9.5,8.2c3.5,0,5.2-1.6,5.2-3.6
		c0-6.8-17.8-1.7-17.8-13.1c0-5.6,5.1-8,9.9-8c3,0,5.6,1.4,7.6,2.8L-523,356.3z"/>
	<path style="fill:#474949;" d="M-499.7,375.2c-0.4,5.4-3.2,8.3-8.6,8.3c-6.2,0-9.4-3.6-9.4-10c0-5.9,4.7-9.9,9.9-9.9
		c4.6,0,8.2,2.5,8.2,5.9c0,1.8-1.2,3.3-2.9,3.3c-1.4,0-3.1-0.7-3.1-2.4c0-1.6,0.8-2.5,2.4-2.6c-0.9-1.2-2.2-1.6-3.8-1.6
		c-4.2,0-5.3,3.9-5.3,7c0,3,1,7,5.2,7c2.4,0,4.1-2,4.4-4.9H-499.7z"/>
	<path style="fill:#474949;" d="M-489.2,367.3L-489.2,367.3c1.7-2.2,3.9-3.8,7-3.8c3.5,0,5.7,2.2,5.7,5.6v9.5c0,1.2,0.5,1.6,1.6,1.6
		h2.2v2.6h-11.7v-2.6h1.5c1.1,0,1.6-0.4,1.6-1.6v-9.2c0-2-1.4-2.8-3.5-2.8c-2.1,0-4.5,2.2-4.5,5.7v6.2c0,1.2,0.5,1.6,1.6,1.6h1.6
		v2.6h-11.8v-2.6h2.3c1.1,0,1.6-0.4,1.6-1.6v-18c0-1.2-0.5-1.6-1.6-1.6h-2.3v-2.6h8.6V367.3z"/>
	<path style="fill:#474949;" d="M-448.8,375.9v1.2c0,4.5-1.8,6.4-5.2,6.4c-2,0-3.7-0.8-4-3c-1.5,2.2-4,3-6.6,3
		c-3.1,0-5.6-1.5-5.6-5.1c0-7.8,12-4,12-9.6c0-2.6-2.2-3-4.3-3c-1.1,0-3,0.4-3.7,1.3c1.5-0.2,2.6,0.4,2.6,2.1c0,1.8-1.2,2.4-2.8,2.4
		c-1.7,0-2.9-1.3-2.9-3c0-4.1,4.9-5,8-5c5.4,0,7.7,2.4,7.7,5.8v9.8c0,0.9,0.4,1.3,1,1.3c0.6,0,1.1-0.6,1.1-3v-1.5H-448.8z
		 M-465,355.8c1.5,0,2.6,1.2,2.6,2.6c0,1.4-1.1,2.6-2.6,2.6c-1.5,0-2.6-1.2-2.6-2.6C-467.6,357-466.5,355.8-465,355.8z M-458.1,373
		l-4.2,1.9c-1.2,0.5-2.4,1.2-2.4,3c0,1.7,0.8,2.5,2.4,2.5c2.7,0,4.2-2.3,4.2-4.9V373z M-456.6,355.8c1.5,0,2.6,1.2,2.6,2.6
		c0,1.4-1.1,2.6-2.6,2.6c-1.5,0-2.6-1.2-2.6-2.6C-459.2,357-458.1,355.8-456.6,355.8z"/>
	<path style="fill:#474949;" d="M-447.3,364.1h3.8v-1c0-5.1,2.7-7.6,6.9-7.6c2.6,0,5.6,1.5,5.6,4.4c0,1.6-0.9,2.8-2.6,2.8
		c-1.5,0-2.6-1-2.6-2.3c0-1.2,0.9-2,2-2.2c0,0-0.1-0.1-0.1-0.1c-0.6-0.4-1.3-0.6-2-0.6c-2.1,0-2.6,1.4-2.6,3.2v3.4h4.1v2.6h-4.1
		v11.8c0,1.2,0.5,1.6,1.6,1.6h2.4v2.6h-12.5v-2.6h2.2c1.1,0,1.6-0.4,1.6-1.6v-11.8h-3.8V364.1z"/>
	<path style="fill:#474949;" d="M-426.1,374c-0.1,3.1,0.8,6.5,4.6,6.5c2.9,0,4.3-1.5,4.8-4.2h3.3c-0.5,4.6-3.3,7.2-8.6,7.2
		c-6.2,0-9.5-3.5-9.5-10c0-5.8,3.8-10,9.3-10c6.6,0,9.3,5.9,8.9,10.4H-426.1z M-418.6,371.3c0-2.5-0.8-5-3.6-5c-2.7,0-3.7,2.5-3.8,5
		H-418.6z"/>
	<path style="fill:#474949;" d="M-403,367.2L-403,367.2c1.7-2.4,2.9-3.6,5.1-3.6c2.6,0,4.8,1.5,4.8,4.4c0,1.8-1.1,3.4-3,3.4
		c-1.6,0-2.8-0.9-2.8-2.6c0-1.5,1.2-2.4,2.6-2.4c-0.4-0.5-1.1-0.6-1.7-0.6c-3.3,0-5,3.3-5,6.2v6.7c0,1.2,0.5,1.6,1.6,1.6h2.5v2.6
		h-12.6v-2.6h2.2c1.1,0,1.6-0.4,1.6-1.6v-10.2c0-1.2-0.5-1.6-1.6-1.6h-2.2v-2.6h8.5V367.2z"/>
	<path style="opacity:0.75;fill:#474949;" d="M-542.7,400h1.1c0.5,0,0.8-0.3,0.8-0.8v-7.3c0-0.5-0.2-0.8-0.7-0.8h-1.2v-0.8h6.4
		c2,0,3.6,0.8,3.6,2.6c0,1.6-1.2,2.2-2.6,2.4v0c1.6,0.2,3,0.9,3,2.7c0,1.8-1.4,2.8-4.9,2.8h-5.5V400z M-539.2,394.9h2.1
		c1.8,0,2.9-0.7,2.9-1.9c0-1.2-0.7-1.9-2.9-1.9h-2.1V394.9z M-539.2,400h2.3c1.6,0,2.9-0.4,2.9-2.1c0-1.7-1.3-2.1-2.9-2.1h-2.3V400z
		"/>
	<path style="opacity:0.75;fill:#474949;" d="M-524.1,399.5L-524.1,399.5c-0.7,1-1.6,1.6-2.9,1.6c-1.7,0-2.6-0.8-2.6-2.5v-3.7
		c0-0.5-0.1-0.7-0.6-0.7h-1v-0.8h3v5.1c0,1.1,0.4,1.8,1.6,1.8c1.5,0,2.4-1.2,2.4-2.5v-2.8c0-0.5-0.1-0.7-0.6-0.7h-1v-0.8h3v6
		c0,0.5,0.1,0.7,0.6,0.7h1v0.8h-3V399.5z M-526.9,391.2c0,0.5-0.4,0.8-0.9,0.8c-0.5,0-0.9-0.4-0.9-0.8c0-0.5,0.4-0.8,0.9-0.8
		C-527.3,390.4-526.9,390.7-526.9,391.2z M-523.7,391.2c0,0.5-0.4,0.8-0.9,0.8c-0.5,0-0.9-0.4-0.9-0.8c0-0.5,0.4-0.8,0.9-0.8
		C-524.1,390.4-523.7,390.7-523.7,391.2z"/>
	<path style="opacity:0.75;fill:#474949;" d="M-517.3,395L-517.3,395c0.4-1.1,1.4-1.9,2.3-1.9c1.1,0,1.8,0.6,1.8,1.7
		c0,0.6-0.3,1.1-0.9,1.1c-0.4,0-0.9-0.3-0.9-0.7c0-0.6,0.4-0.8,1-0.8c-0.1-0.4-0.6-0.4-0.9-0.4c-1.5,0-2.3,1.7-2.3,3.3v2.2
		c0,0.5,0.3,0.7,0.8,0.7h0.9v0.8h-4.7v-0.8h1c0.5,0,0.6-0.2,0.6-0.7v-4.5c0-0.5-0.1-0.7-0.6-0.7h-1.1v-0.8h3V395z"/>
	<path style="opacity:0.75;fill:#474949;" d="M-504.2,397.1c0,2.3-1.6,4-4.1,4s-4.1-1.7-4.1-4c0-2.3,1.6-4,4.1-4
		S-504.2,394.8-504.2,397.1z M-510.9,397.1c0,1.7,0.6,3.2,2.6,3.2s2.6-1.5,2.6-3.2c0-1.7-0.6-3.2-2.6-3.2S-510.9,395.4-510.9,397.1z
		"/>
	<path style="opacity:0.75;fill:#474949;" d="M-495.6,394.1v5.2c0,0.5,0.4,0.7,0.9,0.7h0.8v0.8h-4.8v-0.8h1.1c0.5,0,0.6-0.2,0.6-0.7
		v-5.2h-1.7v-0.8h1.7v-1.1c0-1.7,1.3-2.4,2.5-2.4c0.9,0,2.4,0.3,2.4,1.7c0,0.6-0.4,0.9-1,0.9c-0.7,0-0.8-0.4-0.8-0.8
		c0-0.4,0.3-0.6,0.6-0.6c-0.2-0.3-0.8-0.4-1.2-0.4c-0.6,0-1.2,0.6-1.2,1.4v1.3h1.8v0.8H-495.6z"/>
	<path style="opacity:0.75;fill:#474949;" d="M-485.4,399.5L-485.4,399.5c-0.7,1-1.6,1.6-2.9,1.6c-1.7,0-2.6-0.8-2.6-2.5v-3.7
		c0-0.5-0.1-0.7-0.6-0.7h-1v-0.8h3v5.1c0,1.1,0.4,1.8,1.6,1.8c1.5,0,2.4-1.2,2.4-2.5v-2.8c0-0.5-0.1-0.7-0.6-0.7h-1v-0.8h3v6
		c0,0.5,0.1,0.7,0.6,0.7h1v0.8h-3V399.5z M-488.3,391.2c0,0.5-0.4,0.8-0.9,0.8c-0.5,0-0.9-0.4-0.9-0.8c0-0.5,0.4-0.8,0.9-0.8
		C-488.7,390.4-488.3,390.7-488.3,391.2z M-485,391.2c0,0.5-0.4,0.8-0.9,0.8c-0.5,0-0.9-0.4-0.9-0.8c0-0.5,0.4-0.8,0.9-0.8
		C-485.4,390.4-485,390.7-485,391.2z"/>
	<path style="opacity:0.75;fill:#474949;" d="M-478.6,395L-478.6,395c0.4-1.1,1.4-1.9,2.3-1.9c1.1,0,1.8,0.6,1.8,1.7
		c0,0.6-0.3,1.1-0.9,1.1c-0.4,0-0.9-0.3-0.9-0.7c0-0.6,0.4-0.8,1-0.8c-0.1-0.4-0.6-0.4-0.9-0.4c-1.5,0-2.3,1.7-2.3,3.3v2.2
		c0,0.5,0.3,0.7,0.8,0.7h0.9v0.8h-4.7v-0.8h1c0.5,0,0.6-0.2,0.6-0.7v-4.5c0-0.5-0.1-0.7-0.6-0.7h-1.1v-0.8h3V395z"/>
	<path style="opacity:0.75;fill:#474949;" d="M-464.8,400.9l-2.6-8.9c-0.2-0.7-0.4-0.9-1.2-0.9h-0.4v-0.8h4.5v0.8h-0.8
		c-0.4,0-0.6,0.1-0.6,0.4c0,0.2,0,0.4,0.1,0.7l1.9,6.8h0l2.2-6.7c0-0.2-0.4-1.2-1-1.2h-0.8v-0.8h4.6v0.8h-0.8c-0.3,0-0.7,0-0.7,0.5
		c0,0.3,0.2,0.8,0.3,1.1l1.8,6.3h0l1.9-6.4c0.1-0.3,0.2-0.7,0.2-1c0-0.5-0.3-0.5-0.7-0.5h-0.8v-0.8h4.1v0.8h-0.5
		c-0.6,0-0.9,0.4-1,0.7l-2.8,9.2h-1.3l-2.1-7.1h0l-2.3,7.1H-464.8z"/>
	<path style="opacity:0.75;fill:#474949;" d="M-452.2,397.2c0,1.6,0.4,3.1,2.2,3.1c1.3,0,2.1-0.7,2.4-1.9h0.9
		c-0.4,1.7-1.5,2.7-3.3,2.7c-2.4,0-3.7-1.4-3.7-4s1.4-4,3.7-4c2.6,0,3.4,1.8,3.6,4.1H-452.2z M-447.9,396.4c0-1.4-0.6-2.6-2.1-2.6
		c-1.5,0-2.2,1.2-2.2,2.6H-447.9z"/>
	<path style="opacity:0.75;fill:#474949;" d="M-445.1,391.7c0-0.5-0.2-0.7-0.7-0.7h-0.6v-0.8h2.7v4.4h0c0.5-0.9,1.3-1.5,2.4-1.5
		c2.2,0,3.4,1.8,3.4,4s-1.1,4-3.4,4c-1.2,0-2-0.5-2.6-1.5l-0.5,1.4h-0.7V391.7z M-441.6,400.2c1.7,0,2.1-1.7,2.1-3.1
		c0-1.4-0.4-3.1-2.1-3.1c-1.7,0-2.1,1.7-2.1,3.1C-443.8,398.5-443.3,400.2-441.6,400.2z"/>
	<path style="opacity:0.75;fill:#474949;" d="M-435.3,397.2c0,1.6,0.4,3.1,2.2,3.1c1.3,0,2.1-0.7,2.4-1.9h0.9
		c-0.4,1.7-1.5,2.7-3.3,2.7c-2.4,0-3.7-1.4-3.7-4s1.4-4,3.7-4c2.6,0,3.4,1.8,3.6,4.1H-435.3z M-431,396.4c0-1.4-0.6-2.6-2.1-2.6
		c-1.5,0-2.2,1.2-2.2,2.6H-431z"/>
	<path style="opacity:0.75;fill:#474949;" d="M-425.8,394.7L-425.8,394.7c0.7-1,1.6-1.6,2.9-1.6c1.7,0,2.6,1.1,2.6,2.8v3.5
		c0,0.5,0.1,0.7,0.6,0.7h1v0.8h-4.5v-0.8h0.9c0.5,0,0.6-0.2,0.6-0.7v-3.6c0-1.1-0.4-1.8-1.6-1.8c-1.5,0-2.4,1.2-2.4,2.5v2.8
		c0,0.5,0.1,0.7,0.6,0.7h1v0.8h-4.7v-0.8h1c0.5,0,0.6-0.2,0.6-0.7v-4.5c0-0.5-0.1-0.7-0.6-0.7h-1v-0.8h3V394.7z"/>
	<path style="opacity:0.75;fill:#474949;" d="M-418.1,393.3c1.5-0.2,1.8-1.8,1.9-3.1h0.8v3.1h2.3v0.8h-2.3v5.3
		c0,0.7,0.3,0.9,0.8,0.9c0.7,0,1.1-0.6,1.1-1.6v-0.9h0.8v0.7c0,1.6-0.5,2.6-2.2,2.6c-1.4,0-1.9-0.9-1.9-1.8v-5.2h-1.4V393.3z"/>
	<path style="opacity:0.75;fill:#474949;" d="M-411.7,393.3h3.6v0.8h-0.6c-0.4,0-0.5,0.1-0.5,0.3c0,0.2,0.1,0.3,0.1,0.5l1.6,4.3h0
		l1.7-4.2c-0.2-0.5-0.5-0.9-1-0.9h-0.4v-0.8h3.8v0.8h-0.7c-0.4,0-0.6,0.1-0.6,0.3c0,0.2,0.1,0.3,0.2,0.6l1.6,4.3h0l1.6-4.4
		c0.1-0.2,0.1-0.3,0.1-0.5c0-0.2-0.4-0.3-0.9-0.3h-0.3v-0.8h3.3v0.8h-0.2c-0.5,0-0.8,0.3-1,0.8l-2.4,6.1h-0.9l-1.9-4.7l-1.8,4.7
		h-0.9l-2.5-6.3c-0.1-0.4-0.4-0.5-0.9-0.5h-0.2V393.3z"/>
	<path style="opacity:0.75;fill:#474949;" d="M-395,399.4c0,0.5,0.1,0.7,0.6,0.7h1v0.8h-4.7v-0.8h1c0.5,0,0.6-0.2,0.6-0.7v-4.5
		c0-0.5-0.1-0.7-0.6-0.7h-1v-0.8h3V399.4z M-395.9,391.8c-0.5,0-0.9-0.4-0.9-0.9c0-0.5,0.4-0.9,0.9-0.9c0.5,0,0.9,0.4,0.9,0.9
		C-395,391.4-395.4,391.8-395.9,391.8z"/>
	<path style="opacity:0.75;fill:#474949;" d="M-385.5,398.1c-0.2,2.2-1.6,3-3.6,3c-2,0-3.5-1.3-3.5-4c0-2.4,1.7-4,4-4
		c1.4,0,3.2,0.7,3.2,2.4c0,0.7-0.4,1.1-1,1.1c-0.4,0-0.8-0.3-0.8-0.8c0-0.5,0.3-0.8,0.8-0.9c-0.3-0.8-1.3-1.1-2-1.1
		c-2,0-2.7,1.8-2.7,3.2s0.7,3.2,2.4,3.2c1.3,0,2.1-0.9,2.3-2.2H-385.5z"/>
	<path style="opacity:0.75;fill:#474949;" d="M-381.7,390.2v7l2.9-2.3c0.2-0.2,0.3-0.3,0.3-0.5c0-0.2-0.2-0.3-0.6-0.3h-1v-0.8h4.9
		v0.8h-0.4c-0.5,0-1.1,0.2-1.5,0.5l-2.2,1.8l2.6,2.8c0.4,0.5,0.9,0.8,1.7,0.8h0.3v0.8h-4.7v-0.8h0.9c0.3,0,0.5-0.1,0.5-0.3
		c0-0.2-0.4-0.5-0.4-0.6l-1.8-2l-1.4,1.1v1.1c0,0.5,0.1,0.7,0.6,0.7h0.8v0.8h-4.5v-0.8h0.8c0.7,0,0.8-0.2,0.8-0.7v-7.6
		c0-0.5-0.3-0.7-0.9-0.7h-0.8v-0.8H-381.7z"/>
	<path style="opacity:0.75;fill:#474949;" d="M-371,399.4c0,0.5,0.1,0.7,0.6,0.7h1v0.8h-4.7v-0.8h1c0.5,0,0.6-0.2,0.6-0.7v-7.6
		c0-0.5-0.4-0.7-0.6-0.7h-1v-0.8h3V399.4z"/>
	<path style="opacity:0.75;fill:#474949;" d="M-361.6,399.5L-361.6,399.5c-0.7,1-1.6,1.6-2.9,1.6c-1.7,0-2.6-0.8-2.6-2.5v-3.7
		c0-0.5-0.1-0.7-0.6-0.7h-1v-0.8h3v5.1c0,1.1,0.4,1.8,1.6,1.8c1.5,0,2.4-1.2,2.4-2.5v-2.8c0-0.5-0.1-0.7-0.6-0.7h-1v-0.8h3v6
		c0,0.5,0.1,0.7,0.6,0.7h1v0.8h-3V399.5z"/>
	<path style="opacity:0.75;fill:#474949;" d="M-355,394.7L-355,394.7c0.7-1,1.6-1.6,2.9-1.6c1.7,0,2.6,1.1,2.6,2.8v3.5
		c0,0.5,0.1,0.7,0.6,0.7h1v0.8h-4.5v-0.8h0.9c0.5,0,0.6-0.2,0.6-0.7v-3.6c0-1.1-0.4-1.8-1.6-1.8c-1.5,0-2.4,1.2-2.4,2.5v2.8
		c0,0.5,0.1,0.7,0.6,0.7h1v0.8h-4.7v-0.8h1c0.5,0,0.6-0.2,0.6-0.7v-4.5c0-0.5-0.1-0.7-0.6-0.7h-1v-0.8h3V394.7z"/>
	<path style="opacity:0.75;fill:#474949;" d="M-341.9,399.9c2.4,0,3.3,0.7,3.3,2c0,1.5-1.5,2.3-4.3,2.3c-2.6,0-4-0.6-4-1.9
		c0-1,0.9-1.4,1.7-1.4v0c-0.7,0-1.4-0.5-1.4-1.3c0-0.8,0.7-1.4,1.4-1.6c-0.8-0.5-1.1-1.3-1.1-2.2c0-2,1.8-2.8,3.5-2.8
		c0.9,0,1.9,0.3,2.6,0.9c0.4-0.5,1-0.9,1.6-0.9c0.9,0,1.5,0.5,1.5,1.4c0,0.6-0.3,1-0.9,1c-0.5,0-0.7-0.3-0.7-0.8
		c0-0.5,0.3-0.7,0.8-0.7c-0.1-0.2-0.4-0.3-0.7-0.3c-0.4,0-0.9,0.3-1.2,0.6c0.3,0.5,0.4,1,0.4,1.7c0,1.3-1.3,2.6-3.4,2.6
		c-1.3,0-1.5-0.3-1.8-0.3c-0.4,0-0.8,0.4-0.8,0.8c0,0.5,0.4,0.7,0.9,0.7H-341.9z M-343.9,401.1c-0.9,0-1.9,0.4-1.9,1.1
		c0,1.1,1.4,1.2,3,1.2c1.6,0,2.9-0.4,2.9-1.2c0-0.8-0.6-1.2-1.6-1.2H-343.9z M-344.9,396c0,1.2,0.6,2.1,1.9,2.1
		c1.4,0,1.9-0.8,1.9-2.1s-0.6-2.1-1.9-2.1C-344.3,393.9-344.9,394.7-344.9,396z"/>
</g>
<g>
	<path style="fill:#474949;" d="M426.8-221h2.1v9.1h-2.6c-0.9-3.9-3.1-6.7-7.4-6.7c-3.3,0-4.7,0.9-4.7,3.2c0,5.4,16.1,1.4,16.1,11.4
		c0,5.7-4.5,7.6-9.5,7.6c-2.7,0-5.4-1.2-7.5-2.8l-0.8,2.1H410v-9.8h2.7c0.5,4.8,3.5,7.4,8.6,7.4c3.2,0,4.7-1.5,4.7-3.2
		c0-6.2-16.1-1.5-16.1-11.8c0-5.1,4.6-7.2,8.9-7.2c2.7,0,5,1.3,6.8,2.5L426.8-221z"/>
	<path style="fill:#474949;" d="M447.7-204.1c-0.3,4.8-2.8,7.5-7.7,7.5c-5.5,0-8.5-3.2-8.5-9c0-5.3,4.2-8.9,8.9-8.9
		c4.2,0,7.4,2.3,7.4,5.3c0,1.6-1,3-2.6,3c-1.3,0-2.8-0.6-2.8-2.2c0-1.4,0.7-2.2,2.1-2.3c-0.8-1-2-1.4-3.4-1.4
		c-3.7,0-4.8,3.5-4.8,6.3c0,2.7,0.9,6.3,4.6,6.3c2.2,0,3.7-1.8,3.9-4.4H447.7z"/>
	<path style="fill:#474949;" d="M457.2-211.2L457.2-211.2c1.5-1.9,3.5-3.4,6.3-3.4c3.2,0,5.1,2,5.1,5v8.5c0,1,0.4,1.4,1.4,1.4h2v2.4
		h-10.5v-2.4h1.4c1,0,1.4-0.4,1.4-1.4v-8.2c0-1.8-1.3-2.5-3.2-2.5c-1.9,0-4,2-4,5.1v5.6c0,1,0.4,1.4,1.4,1.4h1.4v2.4h-10.6v-2.4h2.1
		c1,0,1.4-0.4,1.4-1.4v-16.2c0-1-0.4-1.4-1.4-1.4h-2.1v-2.4h7.7V-211.2z"/>
	<path style="fill:#474949;" d="M493.6-203.4v1.1c0,4-1.6,5.7-4.6,5.7c-1.8,0-3.3-0.8-3.6-2.7c-1.3,2-3.6,2.7-5.9,2.7
		c-2.8,0-5-1.3-5-4.6c0-7,10.8-3.6,10.8-8.7c0-2.3-1.9-2.7-3.9-2.7c-1,0-2.7,0.3-3.3,1.2c1.3-0.2,2.4,0.4,2.4,1.9
		c0,1.6-1.1,2.1-2.5,2.1c-1.5,0-2.6-1.2-2.6-2.7c0-3.7,4.4-4.5,7.2-4.5c4.9,0,6.9,2.2,6.9,5.2v8.8c0,0.8,0.3,1.2,0.9,1.2
		c0.5,0,1-0.5,1-2.7v-1.4H493.6z M479-221.5c1.4,0,2.3,1.1,2.3,2.3c0,1.2-1,2.3-2.3,2.3s-2.3-1.1-2.3-2.3
		C476.6-220.4,477.6-221.5,479-221.5z M485.2-206.1l-3.8,1.7c-1,0.5-2.2,1-2.2,2.7c0,1.5,0.7,2.3,2.2,2.3c2.4,0,3.8-2.1,3.8-4.4
		V-206.1z M486.5-221.5c1.4,0,2.3,1.1,2.3,2.3c0,1.2-1,2.3-2.3,2.3s-2.3-1.1-2.3-2.3C484.2-220.4,485.2-221.5,486.5-221.5z"/>
	<path style="fill:#474949;" d="M494.9-214h3.4v-0.9c0-4.6,2.4-6.8,6.2-6.8c2.3,0,5,1.4,5,4c0,1.4-0.8,2.5-2.3,2.5
		c-1.3,0-2.3-0.9-2.3-2.1c0-1.1,0.8-1.8,1.8-2c0,0-0.1-0.1-0.1-0.1c-0.5-0.3-1.2-0.5-1.8-0.5c-1.9,0-2.4,1.3-2.4,2.9v3.1h3.7v2.4
		h-3.7v10.7c0,1,0.4,1.4,1.4,1.4h2.2v2.4H495v-2.4h1.9c1,0,1.4-0.4,1.4-1.4v-10.7h-3.4V-214z"/>
	<path style="fill:#474949;" d="M514-205.2c-0.1,2.8,0.8,5.8,4.1,5.8c2.6,0,3.9-1.3,4.4-3.8h3c-0.5,4.1-3,6.5-7.7,6.5
		c-5.6,0-8.5-3.1-8.5-9c0-5.3,3.4-9,8.4-9c5.9,0,8.4,5.3,8,9.4H514z M520.7-207.5c0-2.3-0.7-4.5-3.2-4.5c-2.4,0-3.3,2.2-3.5,4.5
		H520.7z"/>
	<path style="fill:#474949;" d="M534.8-211.3L534.8-211.3c1.5-2.2,2.6-3.3,4.6-3.3c2.3,0,4.4,1.3,4.4,4c0,1.6-1,3-2.7,3
		c-1.4,0-2.6-0.8-2.6-2.3c0-1.4,1.1-2.1,2.4-2.2c-0.4-0.4-1-0.5-1.5-0.5c-3,0-4.5,3-4.5,5.5v6c0,1,0.4,1.4,1.4,1.4h2.3v2.4h-11.4
		v-2.4h2c1,0,1.4-0.4,1.4-1.4v-9.2c0-1-0.4-1.4-1.4-1.4h-2v-2.4h7.6V-211.3z"/>
	<path style="opacity:0.75;fill:#474949;" d="M556.8-198h1.1c0.5,0,0.8-0.3,0.8-0.8v-7.3c0-0.5-0.2-0.8-0.7-0.8h-1.2v-0.8h6.4
		c2,0,3.6,0.8,3.6,2.6c0,1.6-1.2,2.2-2.6,2.4v0c1.6,0.2,3,0.9,3,2.7c0,1.8-1.4,2.8-4.9,2.8h-5.5V-198z M560.3-203.1h2.1
		c1.8,0,2.9-0.7,2.9-1.9c0-1.2-0.7-1.9-2.9-1.9h-2.1V-203.1z M560.3-198h2.3c1.6,0,2.9-0.4,2.9-2.1c0-1.7-1.3-2.1-2.9-2.1h-2.3V-198
		z"/>
	<path style="opacity:0.75;fill:#474949;" d="M575.5-198.5L575.5-198.5c-0.7,1-1.6,1.6-2.9,1.6c-1.7,0-2.6-0.8-2.6-2.5v-3.7
		c0-0.5-0.1-0.7-0.6-0.7h-1v-0.8h3v5.1c0,1.1,0.4,1.8,1.6,1.8c1.5,0,2.4-1.2,2.4-2.5v-2.8c0-0.5-0.1-0.7-0.6-0.7h-1v-0.8h3v6
		c0,0.5,0.1,0.7,0.6,0.7h1v0.8h-3V-198.5z M572.6-206.8c0,0.5-0.4,0.8-0.9,0.8s-0.9-0.4-0.9-0.8c0-0.5,0.4-0.8,0.9-0.8
		S572.6-207.3,572.6-206.8z M575.8-206.8c0,0.5-0.4,0.8-0.9,0.8s-0.9-0.4-0.9-0.8c0-0.5,0.4-0.8,0.9-0.8S575.8-207.3,575.8-206.8z"
		/>
	<path style="opacity:0.75;fill:#474949;" d="M582.2-203L582.2-203c0.4-1.1,1.4-1.9,2.3-1.9c1.1,0,1.8,0.6,1.8,1.7
		c0,0.6-0.3,1.1-0.9,1.1c-0.4,0-0.9-0.3-0.9-0.7c0-0.6,0.4-0.8,1-0.8c-0.1-0.4-0.6-0.4-0.9-0.4c-1.5,0-2.3,1.7-2.3,3.3v2.2
		c0,0.5,0.3,0.7,0.8,0.7h0.9v0.8h-4.7v-0.8h1c0.5,0,0.6-0.2,0.6-0.7v-4.5c0-0.5-0.1-0.7-0.6-0.7h-1.1v-0.8h3V-203z"/>
	<path style="opacity:0.75;fill:#474949;" d="M595.4-200.9c0,2.3-1.6,4-4.1,4c-2.6,0-4.1-1.7-4.1-4c0-2.3,1.6-4,4.1-4
		C593.8-204.9,595.4-203.2,595.4-200.9z M588.6-200.9c0,1.7,0.6,3.2,2.6,3.2c2,0,2.6-1.5,2.6-3.2c0-1.7-0.6-3.2-2.6-3.2
		C589.2-204.1,588.6-202.6,588.6-200.9z"/>
	<path style="opacity:0.75;fill:#474949;" d="M603.9-203.9v5.2c0,0.5,0.4,0.7,0.9,0.7h0.8v0.8h-4.8v-0.8h1.1c0.5,0,0.6-0.2,0.6-0.7
		v-5.2h-1.7v-0.8h1.7v-1.1c0-1.7,1.3-2.4,2.5-2.4c0.9,0,2.4,0.3,2.4,1.7c0,0.6-0.4,0.9-1,0.9c-0.7,0-0.8-0.4-0.8-0.8
		c0-0.4,0.3-0.6,0.6-0.6c-0.2-0.3-0.8-0.4-1.2-0.4c-0.6,0-1.2,0.6-1.2,1.4v1.3h1.8v0.8H603.9z"/>
	<path style="opacity:0.75;fill:#474949;" d="M614.1-198.5L614.1-198.5c-0.7,1-1.6,1.6-2.9,1.6c-1.7,0-2.6-0.8-2.6-2.5v-3.7
		c0-0.5-0.1-0.7-0.6-0.7h-1v-0.8h3v5.1c0,1.1,0.4,1.8,1.6,1.8c1.5,0,2.4-1.2,2.4-2.5v-2.8c0-0.5-0.1-0.7-0.6-0.7h-1v-0.8h3v6
		c0,0.5,0.1,0.7,0.6,0.7h1v0.8h-3V-198.5z M611.2-206.8c0,0.5-0.4,0.8-0.9,0.8s-0.9-0.4-0.9-0.8c0-0.5,0.4-0.8,0.9-0.8
		S611.2-207.3,611.2-206.8z M614.5-206.8c0,0.5-0.4,0.8-0.9,0.8s-0.9-0.4-0.9-0.8c0-0.5,0.4-0.8,0.9-0.8S614.5-207.3,614.5-206.8z"
		/>
	<path style="opacity:0.75;fill:#474949;" d="M620.9-203L620.9-203c0.4-1.1,1.4-1.9,2.3-1.9c1.1,0,1.8,0.6,1.8,1.7
		c0,0.6-0.3,1.1-0.9,1.1c-0.4,0-0.9-0.3-0.9-0.7c0-0.6,0.4-0.8,1-0.8c-0.1-0.4-0.6-0.4-0.9-0.4c-1.5,0-2.3,1.7-2.3,3.3v2.2
		c0,0.5,0.3,0.7,0.8,0.7h0.9v0.8h-4.7v-0.8h1c0.5,0,0.6-0.2,0.6-0.7v-4.5c0-0.5-0.1-0.7-0.6-0.7h-1.1v-0.8h3V-203z"/>
	<path style="opacity:0.75;fill:#474949;" d="M634.7-197.1l-2.6-8.9c-0.2-0.7-0.4-0.9-1.2-0.9h-0.4v-0.8h4.5v0.8h-0.8
		c-0.4,0-0.6,0.1-0.6,0.4c0,0.2,0,0.4,0.1,0.7l1.9,6.8h0l2.2-6.7c0-0.2-0.4-1.2-1-1.2h-0.8v-0.8h4.6v0.8H640c-0.3,0-0.7,0-0.7,0.5
		c0,0.3,0.2,0.8,0.3,1.1l1.8,6.3h0l1.9-6.4c0.1-0.3,0.2-0.7,0.2-1c0-0.5-0.3-0.5-0.7-0.5H642v-0.8h4.1v0.8h-0.5
		c-0.6,0-0.9,0.4-1,0.7l-2.8,9.2h-1.3l-2.1-7.1h0l-2.3,7.1H634.7z"/>
	<path style="opacity:0.75;fill:#474949;" d="M647.3-200.8c0,1.6,0.4,3.1,2.2,3.1c1.3,0,2.1-0.7,2.4-1.9h0.9
		c-0.4,1.7-1.5,2.7-3.3,2.7c-2.4,0-3.7-1.4-3.7-4s1.4-4,3.7-4c2.6,0,3.4,1.8,3.6,4.1H647.3z M651.6-201.6c0-1.4-0.6-2.6-2.1-2.6
		c-1.5,0-2.2,1.2-2.2,2.6H651.6z"/>
	<path style="opacity:0.75;fill:#474949;" d="M654.4-206.3c0-0.5-0.2-0.7-0.7-0.7h-0.6v-0.8h2.7v4.4h0c0.5-0.9,1.3-1.5,2.4-1.5
		c2.2,0,3.4,1.8,3.4,4s-1.1,4-3.4,4c-1.2,0-2-0.5-2.6-1.5l-0.5,1.4h-0.7V-206.3z M657.9-197.8c1.7,0,2.1-1.7,2.1-3.1
		c0-1.4-0.4-3.1-2.1-3.1c-1.7,0-2.1,1.7-2.1,3.1C655.7-199.5,656.2-197.8,657.9-197.8z"/>
	<path style="opacity:0.75;fill:#474949;" d="M664.2-200.8c0,1.6,0.4,3.1,2.2,3.1c1.3,0,2.1-0.7,2.4-1.9h0.9
		c-0.4,1.7-1.5,2.7-3.3,2.7c-2.4,0-3.7-1.4-3.7-4s1.4-4,3.7-4c2.6,0,3.4,1.8,3.6,4.1H664.2z M668.5-201.6c0-1.4-0.6-2.6-2.1-2.6
		c-1.5,0-2.2,1.2-2.2,2.6H668.5z"/>
	<path style="opacity:0.75;fill:#474949;" d="M673.7-203.3L673.7-203.3c0.7-1,1.6-1.6,2.9-1.6c1.7,0,2.6,1.1,2.6,2.8v3.5
		c0,0.5,0.1,0.7,0.6,0.7h1v0.8h-4.5v-0.8h0.9c0.5,0,0.6-0.2,0.6-0.7v-3.6c0-1.1-0.4-1.8-1.6-1.8c-1.5,0-2.4,1.2-2.4,2.5v2.8
		c0,0.5,0.1,0.7,0.6,0.7h1v0.8h-4.7v-0.8h1c0.5,0,0.6-0.2,0.6-0.7v-4.5c0-0.5-0.1-0.7-0.6-0.7h-1v-0.8h3V-203.3z"/>
	<path style="opacity:0.75;fill:#474949;" d="M681.4-204.7c1.5-0.2,1.8-1.8,1.9-3.1h0.8v3.1h2.3v0.8h-2.3v5.3c0,0.7,0.3,0.9,0.8,0.9
		c0.7,0,1.1-0.6,1.1-1.6v-0.9h0.8v0.7c0,1.6-0.5,2.6-2.2,2.6c-1.4,0-1.9-0.9-1.9-1.8v-5.2h-1.4V-204.7z"/>
	<path style="opacity:0.75;fill:#474949;" d="M687.8-204.7h3.6v0.8h-0.6c-0.4,0-0.5,0.1-0.5,0.3c0,0.2,0.1,0.3,0.1,0.5l1.6,4.3h0
		l1.7-4.2c-0.2-0.5-0.5-0.9-1-0.9h-0.4v-0.8h3.8v0.8h-0.7c-0.4,0-0.6,0.1-0.6,0.3c0,0.2,0.1,0.3,0.2,0.6l1.6,4.3h0l1.6-4.4
		c0.1-0.2,0.1-0.3,0.1-0.5c0-0.2-0.4-0.3-0.9-0.3h-0.3v-0.8h3.3v0.8h-0.2c-0.5,0-0.8,0.3-1,0.8l-2.4,6.1h-0.9l-1.9-4.7l-1.8,4.7
		h-0.9l-2.5-6.3c-0.1-0.4-0.4-0.5-0.9-0.5h-0.2V-204.7z"/>
	<path style="opacity:0.75;fill:#474949;" d="M704.6-198.6c0,0.5,0.1,0.7,0.6,0.7h1v0.8h-4.7v-0.8h1c0.5,0,0.6-0.2,0.6-0.7v-4.5
		c0-0.5-0.1-0.7-0.6-0.7h-1v-0.8h3V-198.6z M703.7-206.2c-0.5,0-0.9-0.4-0.9-0.9c0-0.5,0.4-0.9,0.9-0.9c0.5,0,0.9,0.4,0.9,0.9
		C704.5-206.6,704.1-206.2,703.7-206.2z"/>
	<path style="opacity:0.75;fill:#474949;" d="M714-199.9c-0.2,2.2-1.6,3-3.6,3c-2,0-3.5-1.3-3.5-4c0-2.4,1.7-4,4-4
		c1.4,0,3.2,0.7,3.2,2.4c0,0.7-0.4,1.1-1,1.1c-0.4,0-0.8-0.3-0.8-0.8c0-0.5,0.3-0.8,0.8-0.9c-0.3-0.8-1.3-1.1-2-1.1
		c-2,0-2.7,1.8-2.7,3.2s0.7,3.2,2.4,3.2c1.3,0,2.1-0.9,2.3-2.2H714z"/>
	<path style="opacity:0.75;fill:#474949;" d="M717.9-207.8v7l2.9-2.3c0.2-0.2,0.3-0.3,0.3-0.5c0-0.2-0.2-0.3-0.6-0.3h-1v-0.8h4.9
		v0.8H724c-0.5,0-1.1,0.2-1.5,0.5l-2.2,1.8l2.6,2.8c0.4,0.5,0.9,0.8,1.7,0.8h0.3v0.8h-4.7v-0.8h0.9c0.3,0,0.5-0.1,0.5-0.3
		c0-0.2-0.4-0.5-0.4-0.6l-1.8-2l-1.4,1.1v1.1c0,0.5,0.1,0.7,0.6,0.7h0.8v0.8h-4.5v-0.8h0.8c0.7,0,0.8-0.2,0.8-0.7v-7.6
		c0-0.5-0.3-0.7-0.9-0.7h-0.8v-0.8H717.9z"/>
	<path style="opacity:0.75;fill:#474949;" d="M728.6-198.6c0,0.5,0.1,0.7,0.6,0.7h1v0.8h-4.7v-0.8h1c0.5,0,0.6-0.2,0.6-0.7v-7.6
		c0-0.5-0.4-0.7-0.6-0.7h-1v-0.8h3V-198.6z"/>
	<path style="opacity:0.75;fill:#474949;" d="M737.9-198.5L737.9-198.5c-0.7,1-1.6,1.6-2.9,1.6c-1.7,0-2.6-0.8-2.6-2.5v-3.7
		c0-0.5-0.1-0.7-0.6-0.7h-1v-0.8h3v5.1c0,1.1,0.4,1.8,1.6,1.8c1.5,0,2.4-1.2,2.4-2.5v-2.8c0-0.5-0.1-0.7-0.6-0.7h-1v-0.8h3v6
		c0,0.5,0.1,0.7,0.6,0.7h1v0.8h-3V-198.5z"/>
	<path style="opacity:0.75;fill:#474949;" d="M744.5-203.3L744.5-203.3c0.7-1,1.6-1.6,2.9-1.6c1.7,0,2.6,1.1,2.6,2.8v3.5
		c0,0.5,0.1,0.7,0.6,0.7h1v0.8h-4.5v-0.8h0.9c0.5,0,0.6-0.2,0.6-0.7v-3.6c0-1.1-0.4-1.8-1.6-1.8c-1.5,0-2.4,1.2-2.4,2.5v2.8
		c0,0.5,0.1,0.7,0.6,0.7h1v0.8h-4.7v-0.8h1c0.5,0,0.6-0.2,0.6-0.7v-4.5c0-0.5-0.1-0.7-0.6-0.7h-1v-0.8h3V-203.3z"/>
	<path style="opacity:0.75;fill:#474949;" d="M757.6-198.1c2.4,0,3.3,0.7,3.3,2c0,1.5-1.5,2.3-4.3,2.3c-2.6,0-4-0.6-4-1.9
		c0-1,0.9-1.4,1.7-1.4v0c-0.7,0-1.4-0.5-1.4-1.3c0-0.8,0.7-1.4,1.4-1.6c-0.8-0.5-1.1-1.3-1.1-2.2c0-2,1.8-2.8,3.5-2.8
		c0.9,0,1.9,0.3,2.6,0.9c0.4-0.5,1-0.9,1.6-0.9c0.9,0,1.5,0.5,1.5,1.4c0,0.6-0.3,1-0.9,1c-0.5,0-0.7-0.3-0.7-0.8
		c0-0.5,0.3-0.7,0.8-0.7c-0.1-0.2-0.4-0.3-0.7-0.3c-0.4,0-0.9,0.3-1.2,0.6c0.3,0.5,0.4,1,0.4,1.7c0,1.3-1.3,2.6-3.4,2.6
		c-1.3,0-1.5-0.3-1.8-0.3c-0.4,0-0.8,0.4-0.8,0.8c0,0.5,0.4,0.7,0.9,0.7H757.6z M755.6-196.9c-0.9,0-1.9,0.4-1.9,1.1
		c0,1.1,1.4,1.2,3,1.2c1.6,0,2.9-0.4,2.9-1.2c0-0.8-0.6-1.2-1.6-1.2H755.6z M754.6-202c0,1.2,0.6,2.1,1.9,2.1c1.4,0,1.9-0.8,1.9-2.1
		s-0.6-2.1-1.9-2.1C755.2-204.1,754.6-203.3,754.6-202z"/>
</g>
<g>
	<path style="fill:#FFFFFF;" d="M414.8-159.7h2.1v9.1h-2.6c-0.9-3.9-3.1-6.7-7.4-6.7c-3.3,0-4.7,0.9-4.7,3.2
		c0,5.4,16.1,1.4,16.1,11.4c0,5.7-4.5,7.6-9.5,7.6c-2.7,0-5.4-1.2-7.5-2.8l-0.8,2.1H398v-9.8h2.7c0.5,4.8,3.5,7.4,8.6,7.4
		c3.2,0,4.7-1.5,4.7-3.2c0-6.2-16.1-1.5-16.1-11.8c0-5.1,4.6-7.2,8.9-7.2c2.7,0,5,1.3,6.8,2.5L414.8-159.7z"/>
	<path style="fill:#FFFFFF;" d="M435.7-142.7c-0.3,4.8-2.8,7.5-7.7,7.5c-5.5,0-8.5-3.2-8.5-9c0-5.3,4.2-8.9,8.9-8.9
		c4.2,0,7.4,2.3,7.4,5.3c0,1.6-1,3-2.6,3c-1.3,0-2.8-0.6-2.8-2.2c0-1.4,0.7-2.2,2.1-2.3c-0.8-1-2-1.4-3.4-1.4
		c-3.7,0-4.8,3.5-4.8,6.3c0,2.7,0.9,6.3,4.6,6.3c2.2,0,3.7-1.8,3.9-4.4H435.7z"/>
	<path style="fill:#FFFFFF;" d="M445.2-149.8L445.2-149.8c1.5-1.9,3.5-3.4,6.3-3.4c3.2,0,5.1,2,5.1,5v8.5c0,1,0.4,1.4,1.4,1.4h2v2.4
		h-10.5v-2.4h1.4c1,0,1.4-0.4,1.4-1.4v-8.2c0-1.8-1.3-2.5-3.2-2.5c-1.9,0-4,2-4,5.1v5.6c0,1,0.4,1.4,1.4,1.4h1.4v2.4h-10.6v-2.4h2.1
		c1,0,1.4-0.4,1.4-1.4v-16.2c0-1-0.4-1.4-1.4-1.4h-2.1v-2.4h7.7V-149.8z"/>
	<path style="fill:#FFFFFF;" d="M481.6-142.1v1.1c0,4-1.6,5.7-4.6,5.7c-1.8,0-3.3-0.8-3.6-2.7c-1.3,2-3.6,2.7-5.9,2.7
		c-2.8,0-5-1.3-5-4.6c0-7,10.8-3.6,10.8-8.7c0-2.3-1.9-2.7-3.9-2.7c-1,0-2.7,0.3-3.3,1.2c1.3-0.2,2.4,0.4,2.4,1.9
		c0,1.6-1.1,2.1-2.5,2.1c-1.5,0-2.6-1.2-2.6-2.7c0-3.7,4.4-4.5,7.2-4.5c4.9,0,6.9,2.2,6.9,5.2v8.8c0,0.8,0.3,1.2,0.9,1.2
		c0.5,0,1-0.5,1-2.7v-1.4H481.6z M467-160.2c1.4,0,2.3,1.1,2.3,2.3c0,1.2-1,2.3-2.3,2.3s-2.3-1.1-2.3-2.3
		C464.6-159,465.6-160.2,467-160.2z M473.2-144.7l-3.8,1.7c-1,0.5-2.2,1-2.2,2.7c0,1.5,0.7,2.3,2.2,2.3c2.4,0,3.8-2.1,3.8-4.4
		V-144.7z M474.5-160.2c1.4,0,2.3,1.1,2.3,2.3c0,1.2-1,2.3-2.3,2.3s-2.3-1.1-2.3-2.3C472.2-159,473.2-160.2,474.5-160.2z"/>
	<path style="fill:#FFFFFF;" d="M482.9-152.7h3.4v-0.9c0-4.6,2.4-6.8,6.2-6.8c2.3,0,5,1.4,5,4c0,1.4-0.8,2.5-2.3,2.5
		c-1.3,0-2.3-0.9-2.3-2.1c0-1.1,0.8-1.8,1.8-2c0,0-0.1-0.1-0.1-0.1c-0.5-0.3-1.2-0.5-1.8-0.5c-1.9,0-2.4,1.3-2.4,2.9v3.1h3.7v2.4
		h-3.7v10.7c0,1,0.4,1.4,1.4,1.4h2.2v2.4H483v-2.4h1.9c1,0,1.4-0.4,1.4-1.4v-10.7h-3.4V-152.7z"/>
	<path style="fill:#FFFFFF;" d="M502-143.8c-0.1,2.8,0.8,5.8,4.1,5.8c2.6,0,3.9-1.3,4.4-3.8h3c-0.5,4.1-3,6.5-7.7,6.5
		c-5.6,0-8.5-3.1-8.5-9c0-5.3,3.4-9,8.4-9c5.9,0,8.4,5.3,8,9.4H502z M508.7-146.2c0-2.3-0.7-4.5-3.2-4.5c-2.4,0-3.3,2.2-3.5,4.5
		H508.7z"/>
	<path style="fill:#FFFFFF;" d="M522.8-149.9L522.8-149.9c1.5-2.2,2.6-3.3,4.6-3.3c2.3,0,4.4,1.3,4.4,4c0,1.6-1,3-2.7,3
		c-1.4,0-2.6-0.8-2.6-2.3c0-1.4,1.1-2.1,2.4-2.2c-0.4-0.4-1-0.5-1.5-0.5c-3,0-4.5,3-4.5,5.5v6c0,1,0.4,1.4,1.4,1.4h2.3v2.4h-11.4
		v-2.4h2c1,0,1.4-0.4,1.4-1.4v-9.2c0-1-0.4-1.4-1.4-1.4h-2v-2.4h7.6V-149.9z"/>
	<path style="opacity:0.75;fill:#FFFFFF;" d="M544.8-136.7h1.1c0.5,0,0.8-0.3,0.8-0.8v-7.3c0-0.5-0.2-0.8-0.7-0.8h-1.2v-0.8h6.4
		c2,0,3.6,0.8,3.6,2.6c0,1.6-1.2,2.2-2.6,2.4v0c1.6,0.2,3,0.9,3,2.7c0,1.8-1.4,2.8-4.9,2.8h-5.5V-136.7z M548.3-141.8h2.1
		c1.8,0,2.9-0.7,2.9-1.9c0-1.2-0.7-1.9-2.9-1.9h-2.1V-141.8z M548.3-136.7h2.3c1.6,0,2.9-0.4,2.9-2.1c0-1.7-1.3-2.1-2.9-2.1h-2.3
		V-136.7z"/>
	<path style="opacity:0.75;fill:#FFFFFF;" d="M563.5-137.2L563.5-137.2c-0.7,1-1.6,1.6-2.9,1.6c-1.7,0-2.6-0.8-2.6-2.5v-3.7
		c0-0.5-0.1-0.7-0.6-0.7h-1v-0.8h3v5.1c0,1.1,0.4,1.8,1.6,1.8c1.5,0,2.4-1.2,2.4-2.5v-2.8c0-0.5-0.1-0.7-0.6-0.7h-1v-0.8h3v6
		c0,0.5,0.1,0.7,0.6,0.7h1v0.8h-3V-137.2z M560.6-145.5c0,0.5-0.4,0.8-0.9,0.8s-0.9-0.4-0.9-0.8c0-0.5,0.4-0.8,0.9-0.8
		S560.6-145.9,560.6-145.5z M563.8-145.5c0,0.5-0.4,0.8-0.9,0.8s-0.9-0.4-0.9-0.8c0-0.5,0.4-0.8,0.9-0.8S563.8-145.9,563.8-145.5z"
		/>
	<path style="opacity:0.75;fill:#FFFFFF;" d="M570.2-141.7L570.2-141.7c0.4-1.1,1.4-1.9,2.3-1.9c1.1,0,1.8,0.6,1.8,1.7
		c0,0.6-0.3,1.1-0.9,1.1c-0.4,0-0.9-0.3-0.9-0.7c0-0.6,0.4-0.8,1-0.8c-0.1-0.4-0.6-0.4-0.9-0.4c-1.5,0-2.3,1.7-2.3,3.3v2.2
		c0,0.5,0.3,0.7,0.8,0.7h0.9v0.8h-4.7v-0.8h1c0.5,0,0.6-0.2,0.6-0.7v-4.5c0-0.5-0.1-0.7-0.6-0.7h-1.1v-0.8h3V-141.7z"/>
	<path style="opacity:0.75;fill:#FFFFFF;" d="M583.4-139.6c0,2.3-1.6,4-4.1,4c-2.6,0-4.1-1.7-4.1-4c0-2.3,1.6-4,4.1-4
		C581.8-143.6,583.4-141.9,583.4-139.6z M576.6-139.6c0,1.7,0.6,3.2,2.6,3.2c2,0,2.6-1.5,2.6-3.2c0-1.7-0.6-3.2-2.6-3.2
		C577.2-142.8,576.6-141.3,576.6-139.6z"/>
	<path style="opacity:0.75;fill:#FFFFFF;" d="M591.9-142.6v5.2c0,0.5,0.4,0.7,0.9,0.7h0.8v0.8h-4.8v-0.8h1.1c0.5,0,0.6-0.2,0.6-0.7
		v-5.2h-1.7v-0.8h1.7v-1.1c0-1.7,1.3-2.4,2.5-2.4c0.9,0,2.4,0.3,2.4,1.7c0,0.6-0.4,0.9-1,0.9c-0.7,0-0.8-0.4-0.8-0.8
		c0-0.4,0.3-0.6,0.6-0.6c-0.2-0.3-0.8-0.4-1.2-0.4c-0.6,0-1.2,0.6-1.2,1.4v1.3h1.8v0.8H591.9z"/>
	<path style="opacity:0.75;fill:#FFFFFF;" d="M602.1-137.2L602.1-137.2c-0.7,1-1.6,1.6-2.9,1.6c-1.7,0-2.6-0.8-2.6-2.5v-3.7
		c0-0.5-0.1-0.7-0.6-0.7h-1v-0.8h3v5.1c0,1.1,0.4,1.8,1.6,1.8c1.5,0,2.4-1.2,2.4-2.5v-2.8c0-0.5-0.1-0.7-0.6-0.7h-1v-0.8h3v6
		c0,0.5,0.1,0.7,0.6,0.7h1v0.8h-3V-137.2z M599.2-145.5c0,0.5-0.4,0.8-0.9,0.8s-0.9-0.4-0.9-0.8c0-0.5,0.4-0.8,0.9-0.8
		S599.2-145.9,599.2-145.5z M602.5-145.5c0,0.5-0.4,0.8-0.9,0.8s-0.9-0.4-0.9-0.8c0-0.5,0.4-0.8,0.9-0.8S602.5-145.9,602.5-145.5z"
		/>
	<path style="opacity:0.75;fill:#FFFFFF;" d="M608.9-141.7L608.9-141.7c0.4-1.1,1.4-1.9,2.3-1.9c1.1,0,1.8,0.6,1.8,1.7
		c0,0.6-0.3,1.1-0.9,1.1c-0.4,0-0.9-0.3-0.9-0.7c0-0.6,0.4-0.8,1-0.8c-0.1-0.4-0.6-0.4-0.9-0.4c-1.5,0-2.3,1.7-2.3,3.3v2.2
		c0,0.5,0.3,0.7,0.8,0.7h0.9v0.8h-4.7v-0.8h1c0.5,0,0.6-0.2,0.6-0.7v-4.5c0-0.5-0.1-0.7-0.6-0.7h-1.1v-0.8h3V-141.7z"/>
	<path style="opacity:0.75;fill:#FFFFFF;" d="M622.7-135.7l-2.6-8.9c-0.2-0.7-0.4-0.9-1.2-0.9h-0.4v-0.8h4.5v0.8h-0.8
		c-0.4,0-0.6,0.1-0.6,0.4c0,0.2,0,0.4,0.1,0.7l1.9,6.8h0l2.2-6.7c0-0.2-0.4-1.2-1-1.2h-0.8v-0.8h4.6v0.8H628c-0.3,0-0.7,0-0.7,0.5
		c0,0.3,0.2,0.8,0.3,1.1l1.8,6.3h0l1.9-6.4c0.1-0.3,0.2-0.7,0.2-1c0-0.5-0.3-0.5-0.7-0.5H630v-0.8h4.1v0.8h-0.5
		c-0.6,0-0.9,0.4-1,0.7l-2.8,9.2h-1.3l-2.1-7.1h0l-2.3,7.1H622.7z"/>
	<path style="opacity:0.75;fill:#FFFFFF;" d="M635.3-139.5c0,1.6,0.4,3.1,2.2,3.1c1.3,0,2.1-0.7,2.4-1.9h0.9
		c-0.4,1.7-1.5,2.7-3.3,2.7c-2.4,0-3.7-1.4-3.7-4s1.4-4,3.7-4c2.6,0,3.4,1.8,3.6,4.1H635.3z M639.6-140.2c0-1.4-0.6-2.6-2.1-2.6
		c-1.5,0-2.2,1.2-2.2,2.6H639.6z"/>
	<path style="opacity:0.75;fill:#FFFFFF;" d="M642.4-144.9c0-0.5-0.2-0.7-0.7-0.7h-0.6v-0.8h2.7v4.4h0c0.5-0.9,1.3-1.5,2.4-1.5
		c2.2,0,3.4,1.8,3.4,4s-1.1,4-3.4,4c-1.2,0-2-0.5-2.6-1.5l-0.5,1.4h-0.7V-144.9z M645.9-136.5c1.7,0,2.1-1.7,2.1-3.1
		c0-1.4-0.4-3.1-2.1-3.1c-1.7,0-2.1,1.7-2.1,3.1C643.7-138.1,644.2-136.5,645.9-136.5z"/>
	<path style="opacity:0.75;fill:#FFFFFF;" d="M652.2-139.5c0,1.6,0.4,3.1,2.2,3.1c1.3,0,2.1-0.7,2.4-1.9h0.9
		c-0.4,1.7-1.5,2.7-3.3,2.7c-2.4,0-3.7-1.4-3.7-4s1.4-4,3.7-4c2.6,0,3.4,1.8,3.6,4.1H652.2z M656.5-140.2c0-1.4-0.6-2.6-2.1-2.6
		c-1.5,0-2.2,1.2-2.2,2.6H656.5z"/>
	<path style="opacity:0.75;fill:#FFFFFF;" d="M661.7-142L661.7-142c0.7-1,1.6-1.6,2.9-1.6c1.7,0,2.6,1.1,2.6,2.8v3.5
		c0,0.5,0.1,0.7,0.6,0.7h1v0.8h-4.5v-0.8h0.9c0.5,0,0.6-0.2,0.6-0.7v-3.6c0-1.1-0.4-1.8-1.6-1.8c-1.5,0-2.4,1.2-2.4,2.5v2.8
		c0,0.5,0.1,0.7,0.6,0.7h1v0.8h-4.7v-0.8h1c0.5,0,0.6-0.2,0.6-0.7v-4.5c0-0.5-0.1-0.7-0.6-0.7h-1v-0.8h3V-142z"/>
	<path style="opacity:0.75;fill:#FFFFFF;" d="M669.4-143.3c1.5-0.2,1.8-1.8,1.9-3.1h0.8v3.1h2.3v0.8h-2.3v5.3c0,0.7,0.3,0.9,0.8,0.9
		c0.7,0,1.1-0.6,1.1-1.6v-0.9h0.8v0.7c0,1.6-0.5,2.6-2.2,2.6c-1.4,0-1.9-0.9-1.9-1.8v-5.2h-1.4V-143.3z"/>
	<path style="opacity:0.75;fill:#FFFFFF;" d="M675.8-143.3h3.6v0.8h-0.6c-0.4,0-0.5,0.1-0.5,0.3c0,0.2,0.1,0.3,0.1,0.5l1.6,4.3h0
		l1.7-4.2c-0.2-0.5-0.5-0.9-1-0.9h-0.4v-0.8h3.8v0.8h-0.7c-0.4,0-0.6,0.1-0.6,0.3c0,0.2,0.1,0.3,0.2,0.6l1.6,4.3h0l1.6-4.4
		c0.1-0.2,0.1-0.3,0.1-0.5c0-0.2-0.4-0.3-0.9-0.3h-0.3v-0.8h3.3v0.8h-0.2c-0.5,0-0.8,0.3-1,0.8l-2.4,6.1h-0.9l-1.9-4.7l-1.8,4.7
		h-0.9l-2.5-6.3c-0.1-0.4-0.4-0.5-0.9-0.5h-0.2V-143.3z"/>
	<path style="opacity:0.75;fill:#FFFFFF;" d="M692.6-137.3c0,0.5,0.1,0.7,0.6,0.7h1v0.8h-4.7v-0.8h1c0.5,0,0.6-0.2,0.6-0.7v-4.5
		c0-0.5-0.1-0.7-0.6-0.7h-1v-0.8h3V-137.3z M691.7-144.9c-0.5,0-0.9-0.4-0.9-0.9c0-0.5,0.4-0.9,0.9-0.9c0.5,0,0.9,0.4,0.9,0.9
		C692.5-145.2,692.1-144.9,691.7-144.9z"/>
	<path style="opacity:0.75;fill:#FFFFFF;" d="M702-138.6c-0.2,2.2-1.6,3-3.6,3c-2,0-3.5-1.3-3.5-4c0-2.4,1.7-4,4-4
		c1.4,0,3.2,0.7,3.2,2.4c0,0.7-0.4,1.1-1,1.1c-0.4,0-0.8-0.3-0.8-0.8c0-0.5,0.3-0.8,0.8-0.9c-0.3-0.8-1.3-1.1-2-1.1
		c-2,0-2.7,1.8-2.7,3.2s0.7,3.2,2.4,3.2c1.3,0,2.1-0.9,2.3-2.2H702z"/>
	<path style="opacity:0.75;fill:#FFFFFF;" d="M705.9-146.4v7l2.9-2.3c0.2-0.2,0.3-0.3,0.3-0.5c0-0.2-0.2-0.3-0.6-0.3h-1v-0.8h4.9
		v0.8H712c-0.5,0-1.1,0.2-1.5,0.5l-2.2,1.8l2.6,2.8c0.4,0.5,0.9,0.8,1.7,0.8h0.3v0.8h-4.7v-0.8h0.9c0.3,0,0.5-0.1,0.5-0.3
		c0-0.2-0.4-0.5-0.4-0.6l-1.8-2l-1.4,1.1v1.1c0,0.5,0.1,0.7,0.6,0.7h0.8v0.8h-4.5v-0.8h0.8c0.7,0,0.8-0.2,0.8-0.7v-7.6
		c0-0.5-0.3-0.7-0.9-0.7h-0.8v-0.8H705.9z"/>
	<path style="opacity:0.75;fill:#FFFFFF;" d="M716.6-137.3c0,0.5,0.1,0.7,0.6,0.7h1v0.8h-4.7v-0.8h1c0.5,0,0.6-0.2,0.6-0.7v-7.6
		c0-0.5-0.4-0.7-0.6-0.7h-1v-0.8h3V-137.3z"/>
	<path style="opacity:0.75;fill:#FFFFFF;" d="M725.9-137.2L725.9-137.2c-0.7,1-1.6,1.6-2.9,1.6c-1.7,0-2.6-0.8-2.6-2.5v-3.7
		c0-0.5-0.1-0.7-0.6-0.7h-1v-0.8h3v5.1c0,1.1,0.4,1.8,1.6,1.8c1.5,0,2.4-1.2,2.4-2.5v-2.8c0-0.5-0.1-0.7-0.6-0.7h-1v-0.8h3v6
		c0,0.5,0.1,0.7,0.6,0.7h1v0.8h-3V-137.2z"/>
	<path style="opacity:0.75;fill:#FFFFFF;" d="M732.5-142L732.5-142c0.7-1,1.6-1.6,2.9-1.6c1.7,0,2.6,1.1,2.6,2.8v3.5
		c0,0.5,0.1,0.7,0.6,0.7h1v0.8h-4.5v-0.8h0.9c0.5,0,0.6-0.2,0.6-0.7v-3.6c0-1.1-0.4-1.8-1.6-1.8c-1.5,0-2.4,1.2-2.4,2.5v2.8
		c0,0.5,0.1,0.7,0.6,0.7h1v0.8h-4.7v-0.8h1c0.5,0,0.6-0.2,0.6-0.7v-4.5c0-0.5-0.1-0.7-0.6-0.7h-1v-0.8h3V-142z"/>
	<path style="opacity:0.75;fill:#FFFFFF;" d="M745.6-136.7c2.4,0,3.3,0.7,3.3,2c0,1.5-1.5,2.3-4.3,2.3c-2.6,0-4-0.6-4-1.9
		c0-1,0.9-1.4,1.7-1.4v0c-0.7,0-1.4-0.5-1.4-1.3c0-0.8,0.7-1.4,1.4-1.6c-0.8-0.5-1.1-1.3-1.1-2.2c0-2,1.8-2.8,3.5-2.8
		c0.9,0,1.9,0.3,2.6,0.9c0.4-0.5,1-0.9,1.6-0.9c0.9,0,1.5,0.5,1.5,1.4c0,0.6-0.3,1-0.9,1c-0.5,0-0.7-0.3-0.7-0.8
		c0-0.5,0.3-0.7,0.8-0.7c-0.1-0.2-0.4-0.3-0.7-0.3c-0.4,0-0.9,0.3-1.2,0.6c0.3,0.5,0.4,1,0.4,1.7c0,1.3-1.3,2.6-3.4,2.6
		c-1.3,0-1.5-0.3-1.8-0.3c-0.4,0-0.8,0.4-0.8,0.8c0,0.5,0.4,0.7,0.9,0.7H745.6z M743.6-135.5c-0.9,0-1.9,0.4-1.9,1.1
		c0,1.1,1.4,1.2,3,1.2c1.6,0,2.9-0.4,2.9-1.2c0-0.8-0.6-1.2-1.6-1.2H743.6z M742.6-140.7c0,1.2,0.6,2.1,1.9,2.1
		c1.4,0,1.9-0.8,1.9-2.1s-0.6-2.1-1.9-2.1C743.2-142.8,742.6-141.9,742.6-140.7z"/>
</g>
<g>
	<g>
		<path style="fill:#0C7284;" d="M47.7,90.8H50v10.1h-2.9c-1-4.4-3.5-7.5-8.2-7.5c-3.7,0-5.2,1-5.2,3.6c0,6,17.8,1.5,17.8,12.7
			c0,6.4-5,8.4-10.6,8.4c-3,0-6-1.3-8.3-3.2l-0.9,2.4H29v-10.8h3c0.6,5.4,3.8,8.2,9.5,8.2c3.5,0,5.2-1.6,5.2-3.6
			c0-6.8-17.8-1.7-17.8-13.1c0-5.6,5.1-8,9.9-8c3,0,5.6,1.4,7.6,2.8L47.7,90.8z"/>
		<path style="fill:#0C7284;" d="M70.9,109.7c-0.4,5.4-3.2,8.3-8.6,8.3c-6.2,0-9.4-3.6-9.4-10c0-5.9,4.7-9.9,9.9-9.9
			c4.6,0,8.2,2.5,8.2,5.9c0,1.8-1.2,3.3-2.9,3.3c-1.4,0-3.1-0.7-3.1-2.4c0-1.6,0.8-2.5,2.4-2.6c-0.9-1.2-2.2-1.6-3.8-1.6
			c-4.2,0-5.3,3.9-5.3,7c0,3,1,7,5.2,7c2.4,0,4.1-2,4.4-4.9H70.9z"/>
		<path style="fill:#0C7284;" d="M81.5,101.8L81.5,101.8c1.7-2.2,3.9-3.8,7-3.8c3.5,0,5.7,2.2,5.7,5.6v9.5c0,1.2,0.5,1.6,1.6,1.6
			h2.2v2.6H86.4v-2.6h1.5c1.1,0,1.6-0.4,1.6-1.6v-9.2c0-2-1.4-2.8-3.5-2.8c-2.1,0-4.5,2.2-4.5,5.7v6.2c0,1.2,0.5,1.6,1.6,1.6h1.6
			v2.6H72.9v-2.6h2.3c1.1,0,1.6-0.4,1.6-1.6v-18c0-1.2-0.5-1.6-1.6-1.6h-2.3v-2.6h8.6V101.8z"/>
		<path style="fill:#0C7284;" d="M121.9,110.4v1.2c0,4.5-1.8,6.4-5.2,6.4c-2,0-3.7-0.8-4-3c-1.5,2.2-4,3-6.6,3
			c-3.1,0-5.6-1.5-5.6-5.1c0-7.8,12-4,12-9.6c0-2.6-2.2-3-4.3-3c-1.1,0-3,0.4-3.7,1.3c1.5-0.2,2.6,0.4,2.6,2.1
			c0,1.8-1.2,2.4-2.8,2.4c-1.7,0-2.9-1.3-2.9-3c0-4.1,4.9-5,8-5c5.4,0,7.7,2.4,7.7,5.8v9.8c0,0.9,0.4,1.3,1,1.3s1.1-0.6,1.1-3v-1.5
			H121.9z M105.7,90.3c1.5,0,2.6,1.2,2.6,2.6s-1.1,2.6-2.6,2.6c-1.5,0-2.6-1.2-2.6-2.6S104.1,90.3,105.7,90.3z M112.5,107.5
			l-4.2,1.9c-1.2,0.5-2.4,1.2-2.4,3c0,1.7,0.8,2.5,2.4,2.5c2.7,0,4.2-2.3,4.2-4.9V107.5z M114.1,90.3c1.5,0,2.6,1.2,2.6,2.6
			s-1.1,2.6-2.6,2.6s-2.6-1.2-2.6-2.6S112.5,90.3,114.1,90.3z"/>
		<path style="fill:#0C7284;" d="M123.4,98.6h3.8v-1c0-5.1,2.7-7.6,6.9-7.6c2.6,0,5.6,1.5,5.6,4.4c0,1.6-0.9,2.8-2.6,2.8
			c-1.5,0-2.6-1-2.6-2.3c0-1.2,0.9-2,2-2.2c0,0-0.1-0.1-0.1-0.1c-0.6-0.4-1.3-0.6-2-0.6c-2.1,0-2.6,1.4-2.6,3.2v3.4h4.1v2.6h-4.1
			v11.8c0,1.2,0.5,1.6,1.6,1.6h2.4v2.6h-12.5v-2.6h2.2c1.1,0,1.6-0.4,1.6-1.6v-11.8h-3.8V98.6z"/>
		<path style="fill:#0C7284;" d="M144.6,108.5c-0.1,3.1,0.8,6.5,4.6,6.5c2.9,0,4.3-1.5,4.8-4.2h3.3c-0.5,4.6-3.3,7.2-8.6,7.2
			c-6.2,0-9.5-3.5-9.5-10c0-5.8,3.8-10,9.3-10c6.6,0,9.3,5.9,8.9,10.4H144.6z M152,105.8c0-2.5-0.8-5-3.6-5c-2.7,0-3.7,2.5-3.8,5
			H152z"/>
		<path style="fill:#0C7284;" d="M167.7,101.7L167.7,101.7c1.7-2.4,2.9-3.6,5.1-3.6c2.6,0,4.8,1.5,4.8,4.4c0,1.8-1.1,3.4-3,3.4
			c-1.6,0-2.8-0.9-2.8-2.6c0-1.5,1.2-2.4,2.6-2.4c-0.4-0.5-1.1-0.6-1.7-0.6c-3.3,0-5,3.3-5,6.2v6.7c0,1.2,0.5,1.6,1.6,1.6h2.5v2.6
			h-12.6v-2.6h2.2c1.1,0,1.6-0.4,1.6-1.6v-10.2c0-1.2-0.5-1.6-1.6-1.6h-2.2v-2.6h8.5V101.7z"/>
		<path style="opacity:0.75;fill:#0C7284;" d="M0.3,134.5h1.1c0.5,0,0.8-0.3,0.8-0.8v-7.3c0-0.5-0.2-0.8-0.7-0.8H0.3v-0.8h6.4
			c2,0,3.6,0.8,3.6,2.6c0,1.6-1.2,2.2-2.6,2.4v0c1.6,0.2,3,0.9,3,2.7c0,1.8-1.4,2.8-4.9,2.8H0.3V134.5z M3.7,129.4h2.1
			c1.8,0,2.9-0.7,2.9-1.9c0-1.2-0.7-1.9-2.9-1.9H3.7V129.4z M3.7,134.5H6c1.6,0,2.9-0.4,2.9-2.1c0-1.7-1.3-2.1-2.9-2.1H3.7V134.5z"
			/>
		<path style="opacity:0.75;fill:#0C7284;" d="M18.9,134L18.9,134c-0.7,1-1.6,1.6-2.9,1.6c-1.7,0-2.6-0.8-2.6-2.5v-3.7
			c0-0.5-0.1-0.7-0.6-0.7h-1v-0.8h3v5.1c0,1.1,0.4,1.8,1.6,1.8c1.5,0,2.4-1.2,2.4-2.5v-2.8c0-0.5-0.1-0.7-0.6-0.7h-1v-0.8h3v6
			c0,0.5,0.1,0.7,0.6,0.7h1v0.8h-3V134z M16,125.7c0,0.5-0.4,0.8-0.9,0.8c-0.5,0-0.9-0.4-0.9-0.8c0-0.5,0.4-0.8,0.9-0.8
			C15.6,124.9,16,125.2,16,125.7z M19.3,125.7c0,0.5-0.4,0.8-0.9,0.8c-0.5,0-0.9-0.4-0.9-0.8c0-0.5,0.4-0.8,0.9-0.8
			C18.9,124.9,19.3,125.2,19.3,125.7z"/>
		<path style="opacity:0.75;fill:#0C7284;" d="M25.7,129.5L25.7,129.5c0.4-1.1,1.4-1.9,2.3-1.9c1.1,0,1.8,0.6,1.8,1.7
			c0,0.6-0.3,1.1-0.9,1.1c-0.4,0-0.9-0.3-0.9-0.7c0-0.6,0.4-0.8,1-0.8c-0.1-0.4-0.6-0.4-0.9-0.4c-1.5,0-2.3,1.7-2.3,3.3v2.2
			c0,0.5,0.3,0.7,0.8,0.7h0.9v0.8h-4.7v-0.8h1c0.5,0,0.6-0.2,0.6-0.7v-4.5c0-0.5-0.1-0.7-0.6-0.7h-1.1v-0.8h3V129.5z"/>
		<path style="opacity:0.75;fill:#0C7284;" d="M38.8,131.6c0,2.3-1.6,4-4.1,4s-4.1-1.7-4.1-4c0-2.3,1.6-4,4.1-4
			S38.8,129.3,38.8,131.6z M32.1,131.6c0,1.7,0.6,3.2,2.6,3.2s2.6-1.5,2.6-3.2c0-1.7-0.6-3.2-2.6-3.2S32.1,129.9,32.1,131.6z"/>
		<path style="opacity:0.75;fill:#0C7284;" d="M47.4,128.6v5.2c0,0.5,0.4,0.7,0.9,0.7h0.8v0.8h-4.8v-0.8h1.1c0.5,0,0.6-0.2,0.6-0.7
			v-5.2h-1.7v-0.8H46v-1.1c0-1.7,1.3-2.4,2.5-2.4c0.9,0,2.4,0.3,2.4,1.7c0,0.6-0.4,0.9-1,0.9c-0.7,0-0.8-0.4-0.8-0.8
			c0-0.4,0.3-0.6,0.6-0.6c-0.2-0.3-0.8-0.4-1.2-0.4c-0.6,0-1.2,0.6-1.2,1.4v1.3h1.8v0.8H47.4z"/>
		<path style="opacity:0.75;fill:#0C7284;" d="M57.6,134L57.6,134c-0.7,1-1.6,1.6-2.9,1.6c-1.7,0-2.6-0.8-2.6-2.5v-3.7
			c0-0.5-0.1-0.7-0.6-0.7h-1v-0.8h3v5.1c0,1.1,0.4,1.8,1.6,1.8c1.5,0,2.4-1.2,2.4-2.5v-2.8c0-0.5-0.1-0.7-0.6-0.7h-1v-0.8h3v6
			c0,0.5,0.1,0.7,0.6,0.7h1v0.8h-3V134z M54.7,125.7c0,0.5-0.4,0.8-0.9,0.8c-0.5,0-0.9-0.4-0.9-0.8c0-0.5,0.4-0.8,0.9-0.8
			C54.3,124.9,54.7,125.2,54.7,125.7z M57.9,125.7c0,0.5-0.4,0.8-0.9,0.8c-0.5,0-0.9-0.4-0.9-0.8c0-0.5,0.4-0.8,0.9-0.8
			C57.6,124.9,57.9,125.2,57.9,125.7z"/>
		<path style="opacity:0.75;fill:#0C7284;" d="M64.4,129.5L64.4,129.5c0.4-1.1,1.4-1.9,2.3-1.9c1.1,0,1.8,0.6,1.8,1.7
			c0,0.6-0.3,1.1-0.9,1.1c-0.4,0-0.9-0.3-0.9-0.7c0-0.6,0.4-0.8,1-0.8c-0.1-0.4-0.6-0.4-0.9-0.4c-1.5,0-2.3,1.7-2.3,3.3v2.2
			c0,0.5,0.3,0.7,0.8,0.7h0.9v0.8h-4.7v-0.8h1c0.5,0,0.6-0.2,0.6-0.7v-4.5c0-0.5-0.1-0.7-0.6-0.7h-1.1v-0.8h3V129.5z"/>
		<path style="opacity:0.75;fill:#0C7284;" d="M78.2,135.4l-2.6-8.9c-0.2-0.7-0.4-0.9-1.2-0.9h-0.4v-0.8h4.5v0.8h-0.8
			c-0.4,0-0.6,0.1-0.6,0.4c0,0.2,0,0.4,0.1,0.7l1.9,6.8h0l2.2-6.7c0-0.2-0.4-1.2-1-1.2h-0.8v-0.8h4.6v0.8h-0.8c-0.3,0-0.7,0-0.7,0.5
			c0,0.3,0.2,0.8,0.3,1.1l1.8,6.3h0l1.9-6.4c0.1-0.3,0.2-0.7,0.2-1c0-0.5-0.3-0.5-0.7-0.5h-0.8v-0.8h4.1v0.8H89
			c-0.6,0-0.9,0.4-1,0.7l-2.8,9.2H84l-2.1-7.1h0l-2.3,7.1H78.2z"/>
		<path style="opacity:0.75;fill:#0C7284;" d="M90.8,131.7c0,1.6,0.4,3.1,2.2,3.1c1.3,0,2.1-0.7,2.4-1.9h0.9
			c-0.4,1.7-1.5,2.7-3.3,2.7c-2.4,0-3.7-1.4-3.7-4s1.4-4,3.7-4c2.6,0,3.4,1.8,3.6,4.1H90.8z M95,130.9c0-1.4-0.6-2.6-2.1-2.6
			c-1.5,0-2.2,1.2-2.2,2.6H95z"/>
		<path style="opacity:0.75;fill:#0C7284;" d="M97.8,126.2c0-0.5-0.2-0.7-0.7-0.7h-0.6v-0.8h2.7v4.4h0c0.5-0.9,1.3-1.5,2.4-1.5
			c2.2,0,3.4,1.8,3.4,4s-1.1,4-3.4,4c-1.2,0-2-0.5-2.6-1.5l-0.5,1.4h-0.7V126.2z M101.3,134.7c1.7,0,2.1-1.7,2.1-3.1
			c0-1.4-0.4-3.1-2.1-3.1c-1.7,0-2.1,1.7-2.1,3.1C99.2,133,99.6,134.7,101.3,134.7z"/>
		<path style="opacity:0.75;fill:#0C7284;" d="M107.7,131.7c0,1.6,0.4,3.1,2.2,3.1c1.3,0,2.1-0.7,2.4-1.9h0.9
			c-0.4,1.7-1.5,2.7-3.3,2.7c-2.4,0-3.7-1.4-3.7-4s1.4-4,3.7-4c2.6,0,3.4,1.8,3.6,4.1H107.7z M111.9,130.9c0-1.4-0.6-2.6-2.1-2.6
			c-1.5,0-2.2,1.2-2.2,2.6H111.9z"/>
		<path style="opacity:0.75;fill:#0C7284;" d="M117.1,129.2L117.1,129.2c0.7-1,1.6-1.6,2.9-1.6c1.7,0,2.6,1.1,2.6,2.8v3.5
			c0,0.5,0.1,0.7,0.6,0.7h1v0.8h-4.5v-0.8h0.9c0.5,0,0.6-0.2,0.6-0.7v-3.6c0-1.1-0.4-1.8-1.6-1.8c-1.5,0-2.4,1.2-2.4,2.5v2.8
			c0,0.5,0.1,0.7,0.6,0.7h1v0.8h-4.7v-0.8h1c0.5,0,0.6-0.2,0.6-0.7v-4.5c0-0.5-0.1-0.7-0.6-0.7h-1v-0.8h3V129.2z"/>
		<path style="opacity:0.75;fill:#0C7284;" d="M124.9,127.8c1.5-0.2,1.8-1.8,1.9-3.1h0.8v3.1h2.3v0.8h-2.3v5.3
			c0,0.7,0.3,0.9,0.8,0.9c0.7,0,1.1-0.6,1.1-1.6v-0.9h0.8v0.7c0,1.6-0.5,2.6-2.2,2.6c-1.4,0-1.9-0.9-1.9-1.8v-5.2h-1.4V127.8z"/>
		<path style="opacity:0.75;fill:#0C7284;" d="M131.3,127.8h3.6v0.8h-0.6c-0.4,0-0.5,0.1-0.5,0.3c0,0.2,0.1,0.3,0.1,0.5l1.6,4.3h0
			l1.7-4.2c-0.2-0.5-0.5-0.9-1-0.9h-0.4v-0.8h3.8v0.8H139c-0.4,0-0.6,0.1-0.6,0.3c0,0.2,0.1,0.3,0.2,0.6l1.6,4.3h0l1.6-4.4
			c0.1-0.2,0.1-0.3,0.1-0.5c0-0.2-0.4-0.3-0.9-0.3h-0.3v-0.8h3.3v0.8h-0.2c-0.5,0-0.8,0.3-1,0.8l-2.4,6.1h-0.9l-1.9-4.7l-1.8,4.7
			h-0.9l-2.5-6.3c-0.1-0.4-0.4-0.5-0.9-0.5h-0.2V127.8z"/>
		<path style="opacity:0.75;fill:#0C7284;" d="M148,133.8c0,0.5,0.1,0.7,0.6,0.7h1v0.8H145v-0.8h1c0.5,0,0.6-0.2,0.6-0.7v-4.5
			c0-0.5-0.1-0.7-0.6-0.7h-1v-0.8h3V133.8z M147.1,126.3c-0.5,0-0.9-0.4-0.9-0.9c0-0.5,0.4-0.9,0.9-0.9c0.5,0,0.9,0.4,0.9,0.9
			C148,125.9,147.6,126.3,147.1,126.3z"/>
		<path style="opacity:0.75;fill:#0C7284;" d="M157.4,132.6c-0.2,2.2-1.6,3-3.6,3c-2,0-3.5-1.3-3.5-4c0-2.4,1.7-4,4-4
			c1.4,0,3.2,0.7,3.2,2.4c0,0.7-0.4,1.1-1,1.1c-0.4,0-0.8-0.3-0.8-0.8c0-0.5,0.3-0.8,0.8-0.9c-0.3-0.8-1.3-1.1-2-1.1
			c-2,0-2.7,1.8-2.7,3.2s0.7,3.2,2.4,3.2c1.3,0,2.1-0.9,2.3-2.2H157.4z"/>
		<path style="opacity:0.75;fill:#0C7284;" d="M161.3,124.7v7l2.9-2.3c0.2-0.2,0.3-0.3,0.3-0.5c0-0.2-0.2-0.3-0.6-0.3h-1v-0.8h4.8
			v0.8h-0.4c-0.5,0-1.1,0.2-1.5,0.5l-2.2,1.8l2.6,2.8c0.4,0.5,0.9,0.8,1.7,0.8h0.3v0.8h-4.7v-0.8h0.9c0.3,0,0.5-0.1,0.5-0.3
			c0-0.2-0.4-0.5-0.4-0.6l-1.8-2l-1.4,1.1v1.1c0,0.5,0.1,0.7,0.6,0.7h0.8v0.8h-4.5v-0.8h0.8c0.7,0,0.8-0.2,0.8-0.7v-7.6
			c0-0.5-0.3-0.7-0.9-0.7h-0.8v-0.8H161.3z"/>
		<path style="opacity:0.75;fill:#0C7284;" d="M172,133.8c0,0.5,0.1,0.7,0.6,0.7h1v0.8H169v-0.8h1c0.5,0,0.6-0.2,0.6-0.7v-7.6
			c0-0.5-0.4-0.7-0.6-0.7h-1v-0.8h3V133.8z"/>
		<path style="opacity:0.75;fill:#0C7284;" d="M181.3,134L181.3,134c-0.7,1-1.6,1.6-2.9,1.6c-1.7,0-2.6-0.8-2.6-2.5v-3.7
			c0-0.5-0.1-0.7-0.6-0.7h-1v-0.8h3v5.1c0,1.1,0.4,1.8,1.6,1.8c1.5,0,2.4-1.2,2.4-2.5v-2.8c0-0.5-0.1-0.7-0.6-0.7h-1v-0.8h3v6
			c0,0.5,0.1,0.7,0.6,0.7h1v0.8h-3V134z"/>
		<path style="opacity:0.75;fill:#0C7284;" d="M188,129.2L188,129.2c0.7-1,1.6-1.6,2.9-1.6c1.7,0,2.6,1.1,2.6,2.8v3.5
			c0,0.5,0.1,0.7,0.6,0.7h1v0.8h-4.5v-0.8h0.9c0.5,0,0.6-0.2,0.6-0.7v-3.6c0-1.1-0.4-1.8-1.6-1.8c-1.5,0-2.4,1.2-2.4,2.5v2.8
			c0,0.5,0.1,0.7,0.6,0.7h1v0.8H185v-0.8h1c0.5,0,0.6-0.2,0.6-0.7v-4.5c0-0.5-0.1-0.7-0.6-0.7h-1v-0.8h3V129.2z"/>
		<path style="opacity:0.75;fill:#0C7284;" d="M201,134.4c2.4,0,3.3,0.7,3.3,2c0,1.5-1.5,2.3-4.3,2.3c-2.6,0-4-0.6-4-1.9
			c0-1,0.9-1.4,1.7-1.4v0c-0.7,0-1.4-0.5-1.4-1.3c0-0.8,0.7-1.4,1.4-1.6c-0.8-0.5-1.1-1.3-1.1-2.2c0-2,1.8-2.8,3.5-2.8
			c0.9,0,1.9,0.3,2.6,0.9c0.4-0.5,1-0.9,1.6-0.9c0.9,0,1.5,0.5,1.5,1.4c0,0.6-0.3,1-0.9,1c-0.5,0-0.7-0.3-0.7-0.8
			c0-0.5,0.3-0.7,0.8-0.7c-0.1-0.2-0.4-0.3-0.7-0.3c-0.4,0-0.9,0.3-1.2,0.6c0.3,0.5,0.4,1,0.4,1.7c0,1.3-1.3,2.6-3.4,2.6
			c-1.3,0-1.5-0.3-1.8-0.3c-0.4,0-0.8,0.4-0.8,0.8c0,0.5,0.4,0.7,0.9,0.7H201z M199.1,135.6c-0.9,0-1.9,0.4-1.9,1.1
			c0,1.1,1.4,1.2,3,1.2c1.6,0,2.9-0.4,2.9-1.2c0-0.8-0.6-1.2-1.6-1.2H199.1z M198.1,130.5c0,1.2,0.6,2.1,1.9,2.1s1.9-0.8,1.9-2.1
			s-0.6-2.1-1.9-2.1S198.1,129.2,198.1,130.5z"/>
	</g>
	<g>
		<path style="fill:#0C7284;" d="M136.1,0l0,31.8c0,14.4-5.9,27.4-15.4,36.8l-24-24c-3.5-3.5-3.5-9.2,0-12.7c3.5-3.5,9.2-3.5,12.7,0
			c3.5,3.5,3.5,9.2,0,12.7l-0.6,0.6c-0.3,0.3-0.3,0.9,0,1.2l4.2,4.2c0.3,0.3,0.9,0.3,1.2,0l0.6-0.6c6.5-6.5,6.5-17.1,0-23.6
			c-1.4-1.4-2.9-2.4-4.5-3.2V9.1c0-0.7,0.6-1.3,1.3-1.3c0.7,0,1.3,0.6,1.3,1.3c0,0.7-0.6,1.3-1.3,1.3l0,1.1c1.3,0,2.4-1.1,2.4-2.4
			c0-1.3-1.1-2.4-2.4-2.4c-1.3,0-2.4,1.1-2.4,2.4v10.6c-0.8-2.8-2.2-5.5-3.8-6.9c0.1-0.2,0.1-0.5,0.1-0.7c1.4-0.2,2.4-0.7,2.4-1.2
			c0-0.5-0.9-1-2.4-1.2c-0.4-1.6-1.4-3-2.5-3c-1.2,0-2.1,1.4-2.5,3c-1.4,0.2-2.4,0.7-2.4,1.2c0,0.5,0.9,1,2.4,1.2
			c0,0.2,0.1,0.5,0.1,0.7c-2.2,2-3.9,6.5-4.5,10.3c-1.8,0.8-3.4,1.9-4.9,3.4c-6.5,6.5-6.5,17.1,0,23.6l23.5,23.5
			c-3.6,2.6-7.5,4.8-11.8,6.4c-19.3-7.5-33-26.2-33-48.2l0-31.8C69.9,0,124.5,0,136.1,0z"/>
	</g>
</g>
<g>
</g>
<g>
</g>
<g>
</g>
<g>
</g>
<g>
</g>
<g>
</g>
</svg>
