<?xml version="1.0" encoding="utf-8"?>
<svg version="1.1" id="Ebene_1" xmlns="http://www.w3.org/2000/svg" xmlns:xlink="http://www.w3.org/1999/xlink" x="0px" y="0px"
	 width="49.6px" height="60px" viewBox="0 0 49.6 60" style="enable-background:new 0 0 49.6 60;" xml:space="preserve">
	<path fill="#0D7384" d="M49.6,0l0,23.9c0,10.8-4.4,20.6-11.6,27.6l-18-18c-2.7-2.7-2.7-6.9,0-9.6c2.6-2.6,6.9-2.6,9.5,0
		c2.6,2.6,2.6,6.9,0,9.5l-0.5,0.5c-0.2,0.3-0.2,0.7,0,0.9l3.2,3.2c0.3,0.3,0.7,0.2,0.9,0l0.5-0.5c4.9-4.9,4.9-12.8,0-17.7
		c-1-1-2.2-1.8-3.4-2.4V6.9c0-0.5,0.4-1,1-1c0.5,0,1,0.4,1,1c0,0.5-0.4,1-1,1l0,0.8c1,0,1.8-0.8,1.8-1.8c0-1-0.8-1.8-1.8-1.8
		c-1,0-1.8,0.8-1.8,1.8v7.9c-0.6-2.1-1.6-4.1-2.8-5.2c0.1-0.2,0.1-0.3,0.1-0.5c1.1-0.2,1.8-0.5,1.8-0.9c0-0.4-0.7-0.7-1.8-0.9
		c-0.3-1.2-1-2.2-1.9-2.2c-0.9,0-1.6,1.1-1.9,2.2c-1.1,0.2-1.8,0.5-1.8,0.9c0,0.4,0.7,0.7,1.8,0.9c0,0.2,0,0.4,0.1,0.5
		c-1.7,1.5-3,4.9-3.4,7.7c-1.3,0.6-2.6,1.4-3.6,2.5c-4.9,4.9-4.9,12.8,0,17.7l17.7,17.7c-2.7,2-5.7,3.6-8.8,4.8
		C10.3,54.4,0,40.3,0,23.9L0,0C0,0,41,0,49.6,0z" />
</svg>
